<svg width="50" height="50" viewBox="0 0 50 50" fill="none" xmlns="http://www.w3.org/2000/svg">
<g id="Group 1000001805">
<circle id="Ellipse 15" cx="25" cy="25" r="25" fill="#1E1E1E"/>
<path id="phone.fill" d="M19.5962 29.3601C23.3383 33.1109 27.8922 36 31.6089 36C33.2706 36 34.7294 35.4171 35.8964 34.1246C36.5814 33.3643 37 32.49 37 31.6156C37 30.944 36.7336 30.2851 36.0867 29.8289L32.1924 27.0665C31.5708 26.6357 31.0634 26.4329 30.6068 26.4329C30.0106 26.4329 29.4778 26.7624 28.8943 27.3453L27.981 28.2577C27.8288 28.397 27.6512 28.4604 27.4863 28.4604C27.2833 28.4604 27.093 28.3844 26.9662 28.3083C26.167 27.8775 24.797 26.7117 23.5285 25.4446C22.26 24.1774 21.0803 22.8215 20.6617 22.0106C20.5856 21.8712 20.5222 21.6938 20.5222 21.491C20.5222 21.339 20.5729 21.1616 20.7125 21.0095L21.6258 20.0845C22.1966 19.4889 22.5391 18.9694 22.5391 18.3738C22.5391 17.905 22.3362 17.3981 21.9049 16.7899L19.1522 12.9377C18.6829 12.2788 18.0233 12 17.3002 12C16.4376 12 15.5751 12.3801 14.8266 13.1024C13.5581 14.2936 13 15.7761 13 17.4108C13 21.1235 15.8541 25.622 19.5962 29.3601Z" fill="#F9F7F7"/>
</g>
</svg>
