<svg width="452" height="320" viewBox="0 0 452 320" fill="none" xmlns="http://www.w3.org/2000/svg">
<path d="M217.552 278.627C320.485 278.627 403.929 273.778 403.929 267.797C403.929 261.816 320.485 256.968 217.552 256.968C114.619 256.968 31.1753 261.816 31.1753 267.797C31.1753 273.778 114.619 278.627 217.552 278.627Z" fill="#E5E5E5"/>
<path d="M225.885 320C350.637 320 451.77 308.899 451.77 295.205C451.77 281.511 350.637 270.41 225.885 270.41C101.132 270.41 0 281.511 0 295.205C0 308.899 101.132 320 225.885 320Z" fill="#E5E5E5"/>
<path d="M391.036 198.229C391.036 198.229 409.297 197.103 409.06 215.573C408.847 232.038 394.503 232.932 391.392 232.932C391.012 232.932 390.799 232.92 390.799 232.92H251.585V227.107H390.561C390.561 227.107 400.394 225.422 400.759 216.231C401.234 204.23 389.613 204.23 389.613 204.23H251.585V198.229H391.036Z" fill="#3E89FC"/>
<path d="M408.292 265.571C408.553 265.571 408.766 265.751 408.766 265.971C408.766 266.19 408.553 266.37 408.292 266.37V265.571ZM408.292 269.696C408.553 269.696 408.766 269.875 408.766 270.095C408.766 270.315 408.553 270.494 408.292 270.494V269.696ZM408.292 274.355C408.553 274.355 408.766 274.535 408.766 274.754C408.766 274.974 408.553 275.153 408.292 275.153V274.355Z" fill="black"/>
<path d="M408.292 275.153V280.923H257.59C257.59 280.923 246.642 279.374 246.239 270.929C245.713 259.898 258.642 259.898 258.642 259.898H408.291V265.571H256.722C256.461 265.571 256.248 265.751 256.248 265.971C256.248 266.19 256.461 266.37 256.722 266.37H408.292V269.696H265.734C265.473 269.696 265.26 269.875 265.26 270.095C265.26 270.314 265.473 270.494 265.734 270.494H408.292V274.355H288.501C288.241 274.355 288.027 274.535 288.027 274.754C288.027 274.974 288.241 275.153 288.501 275.153H408.292Z" fill="#E5E5E5"/>
<path d="M408.292 274.754V275.153H288.501C288.241 275.153 288.027 274.974 288.027 274.754C288.027 274.535 288.241 274.355 288.501 274.355H408.292V274.754ZM408.292 270.095V270.494H265.734C265.473 270.494 265.26 270.315 265.26 270.095C265.26 269.875 265.473 269.696 265.734 269.696H408.292V270.095ZM408.292 266.37H256.722C256.461 266.37 256.248 266.19 256.248 265.971C256.248 265.751 256.461 265.571 256.722 265.571H408.292V266.37Z" fill="black"/>
<path d="M389.613 204.23C389.613 204.23 401.234 204.23 400.759 216.232C400.394 225.423 390.561 227.107 390.561 227.107H255.152V221.518H384.315C384.576 221.518 384.789 221.338 384.789 221.119C384.789 220.899 384.576 220.719 384.315 220.719H255.152V215.972H369.928C370.189 215.972 370.403 215.792 370.403 215.573C370.403 215.353 370.189 215.174 369.928 215.174H255.152V210.075H374.197C374.458 210.075 374.672 209.895 374.672 209.676C374.672 209.456 374.458 209.277 374.197 209.277H255.152V204.23H389.613Z" fill="#E5E5E5"/>
<path d="M392.933 232.932C392.933 232.932 397.202 243.796 392.933 253.921L350.481 254.129V232.932H392.933Z" fill="#A9D9FF"/>
<path d="M384.315 220.719C384.576 220.719 384.789 220.899 384.789 221.118C384.789 221.338 384.576 221.518 384.315 221.518H255.152V220.719H384.315ZM374.197 209.277C374.458 209.277 374.672 209.456 374.672 209.676C374.672 209.895 374.458 210.075 374.197 210.075H255.152V209.277H374.197ZM369.928 215.174C370.189 215.174 370.403 215.353 370.403 215.573C370.403 215.792 370.189 215.972 369.928 215.972H255.152V215.174H369.928Z" fill="black"/>
<path d="M350.481 232.932V254.129L297.67 254.384H281.548V232.932H350.481Z" fill="white"/>
<path d="M344.552 198.213V198.229H251.585V202.621H235.458V145.129H344.552V198.213ZM318.702 176.402V164.293H299.411V176.402H318.702ZM277.436 183.501V160.033H245.419V183.501H277.436Z" fill="#A9D9FF"/>
<path d="M299.411 164.293H318.702V176.402H299.411V164.293Z" fill="white"/>
<path d="M281.548 254.372V254.384H257.059C257.059 254.384 255.299 254.296 252.823 254.604L238.541 254.672C238.541 254.672 234.272 244.171 238.541 232.932H281.548V254.372Z" fill="#A9D9FF"/>
<path d="M245.419 160.033H277.435V183.501H245.419V160.033Z" fill="white"/>
<path d="M255.152 221.118V221.518C254.891 221.518 254.677 221.338 254.677 221.118C254.677 220.899 254.891 220.719 255.152 220.719V221.118ZM255.152 215.573V215.972C254.891 215.972 254.677 215.792 254.677 215.573C254.677 215.353 254.891 215.174 255.152 215.174V215.573ZM255.152 209.676V210.075C254.891 210.075 254.677 209.895 254.677 209.676C254.677 209.456 254.891 209.277 255.152 209.277V209.676Z" fill="black"/>
<path d="M246.239 270.929C246.643 279.374 257.59 280.923 257.59 280.923H412.262V286.265H257.324C257.324 286.265 237.265 287.299 237 270.326C236.815 258.345 246.884 255.334 252.823 254.604L297.67 254.384H412.262V259.898H258.643C258.643 259.898 245.713 259.898 246.239 270.929Z" fill="#2260AA"/>
<path d="M166.586 124.367V175.34H69.6824V124.367H166.586ZM148.401 148.722V137.699H125.335V148.722H148.401ZM109.525 154.044V143.4H99.7212V135.547H79.7997V145.129H89.7604V154.044H109.525Z" fill="#E5E5E5"/>
<path d="M125.334 137.698H148.401V148.722H125.334V137.698Z" fill="white"/>
<path d="M118.134 239.484L113.951 265.971H69.6822L65.5698 239.484H74.8571C74.9092 239.58 74.9377 239.636 74.9377 239.64C74.9797 239.725 75.0558 239.796 75.1527 239.839C75.2497 239.883 75.3616 239.896 75.4693 239.878C75.5769 239.86 75.6736 239.81 75.7428 239.738C75.8119 239.667 75.8493 239.577 75.8484 239.484H89.286V239.496C89.2907 239.712 89.5041 239.883 89.7603 239.883H89.7745C90.0306 239.879 90.2299 239.704 90.2346 239.484H101.144V239.488C101.145 239.593 101.196 239.694 101.285 239.768C101.373 239.842 101.493 239.883 101.618 239.883H101.623C101.884 239.879 102.097 239.7 102.093 239.484H118.134ZM109.525 143.4V154.044H89.7603V145.129H99.7211V143.4H109.525Z" fill="#A9D9FF"/>
<path d="M107.547 222.165C107.491 222.252 107.434 222.336 107.377 222.424C107.287 222.28 107.206 222.133 107.13 221.973C107.083 221.869 107.04 221.761 106.997 221.653L106.845 221.645C106.845 221.625 106.85 221.605 106.85 221.581C110.512 216.088 115.706 211.959 122.285 209.316C122.341 209.293 122.402 209.28 122.464 209.277C122.526 209.274 122.588 209.282 122.647 209.299C122.705 209.317 122.759 209.344 122.805 209.379C122.851 209.414 122.889 209.456 122.916 209.504C123.029 209.703 122.93 209.939 122.693 210.035C116.213 212.638 111.119 216.723 107.547 222.165Z" fill="black"/>
<path d="M106.85 221.582C106.926 219.976 105.74 218.096 105.57 216.467C105.318 214.08 105.413 210.866 106.476 208.638C108.344 204.725 113.249 201.2 118.372 201.156C119.994 201.144 122.043 201.471 123.599 201.164C126.136 200.661 126.435 198.741 127.104 197.06C128.688 193.059 136.415 193.003 138.943 196.265C140.712 198.549 141.632 201.691 140.798 204.386C140.048 206.806 137.183 210.399 134.707 211.804C131.506 213.621 127.336 212.854 124.263 214.99C122.859 215.964 122.024 218.025 122.327 219.55C122.693 221.354 124.367 222.636 124.547 224.576C124.917 228.66 119.145 229.036 115.497 228.27C113.329 227.814 112.177 226.581 110.635 225.375C109.298 224.329 108.107 223.61 107.377 222.424C107.434 222.336 107.491 222.252 107.547 222.165C111.119 216.723 116.213 212.639 122.693 210.036C122.93 209.94 123.029 209.704 122.916 209.505C122.889 209.457 122.852 209.415 122.805 209.38C122.759 209.345 122.705 209.317 122.647 209.3C122.588 209.283 122.526 209.275 122.464 209.278C122.402 209.281 122.341 209.294 122.285 209.317C115.706 211.96 110.512 216.088 106.85 221.582Z" fill="#A9D9FF"/>
<path d="M101.144 239.484C101.144 239.324 101.097 230.337 106.713 221.781C106.755 221.713 106.803 221.646 106.85 221.582C106.85 221.606 106.845 221.625 106.845 221.646L106.997 221.654C107.04 221.762 107.083 221.869 107.13 221.973C107.206 222.133 107.287 222.281 107.377 222.424C102.031 230.749 102.093 239.392 102.093 239.481V239.485L101.144 239.484Z" fill="black"/>
<path d="M101.618 239.484H102.093C102.097 239.7 101.884 239.879 101.623 239.883H101.618C101.493 239.883 101.373 239.842 101.285 239.768C101.196 239.694 101.145 239.593 101.144 239.488V239.484H101.618Z" fill="black"/>
<path d="M99.0951 210.71C102.192 212.598 102.562 216.391 100.556 219.122C98.3409 222.137 92.8198 225.854 88.3042 224.744C88.2995 224.703 88.29 224.664 88.2805 224.624C85.9943 213.684 80.9523 199.267 69.9575 192.711C69.744 192.587 69.4452 192.627 69.2934 192.807C69.1416 192.987 69.1938 193.238 69.4072 193.366C80.108 199.742 85.0599 213.884 87.3319 224.663C81.6543 224.36 75.5924 223.106 70.3132 221.485C66.9455 220.451 62.6908 218.16 63.0371 214.702C63.2316 212.762 64.9486 211.544 66.6799 210.474C68.0127 209.648 69.431 208.717 68.895 207.112C68.3495 205.479 65.9731 205.352 64.2988 204.753C61.9224 203.902 59.4749 202.836 57.8575 201.127C53.7072 196.732 54.2574 191.254 59.7216 187.948C64.5454 185.034 70.3938 184.646 75.8485 186.375C80.8669 187.972 87.2465 191.702 87.2323 196.528C87.2228 200.194 85.335 203.048 89.0063 205.947C91.9518 208.271 95.8887 208.754 99.0951 210.71Z" fill="#3E89FC"/>
<path d="M99.7211 143.4V145.129H79.7996V135.547H99.7211V143.4Z" fill="white"/>
<path d="M89.7604 239.484H90.2347C90.23 239.704 90.0308 239.879 89.7746 239.883H89.7604C89.5043 239.883 89.2908 239.712 89.2861 239.496V239.484H89.7604ZM89.2861 239.484C89.2766 239.157 89.0252 232.761 87.3508 224.76C87.3461 224.728 87.3366 224.696 87.3319 224.664C87.4931 224.676 87.6544 224.684 87.8157 224.692C87.939 224.703 88.0576 224.708 88.1809 224.712C88.2236 224.724 88.2615 224.732 88.3042 224.744C90.0118 232.92 90.2347 239.408 90.2347 239.472V239.484H89.2861ZM75.3742 239.484H75.8485C75.8486 239.537 75.8365 239.589 75.8127 239.637C75.7889 239.686 75.7539 239.73 75.7099 239.767C75.6658 239.804 75.6135 239.833 75.5559 239.853C75.4982 239.873 75.4365 239.883 75.3742 239.883C75.1892 239.883 75.0137 239.792 74.9378 239.64C74.9378 239.636 74.9094 239.58 74.8572 239.484H75.3742Z" fill="black"/>
<path d="M69.4071 193.366C69.1937 193.239 69.1415 192.987 69.2933 192.807C69.4451 192.628 69.7439 192.588 69.9573 192.712C80.9521 199.267 85.9942 213.684 88.2804 224.624C88.2899 224.664 88.2994 224.704 88.3041 224.744C88.2614 224.732 88.2235 224.724 88.1808 224.712C88.0575 224.708 87.9389 224.704 87.8156 224.692C87.6543 224.684 87.493 224.676 87.3318 224.664C85.0598 213.884 80.1078 199.743 69.4071 193.366ZM66.9976 230.972C67.0972 230.872 67.1873 230.761 67.2679 230.645C67.2727 230.649 67.2821 230.653 67.2869 230.657L67.3818 230.717C67.4624 230.773 67.5478 230.824 67.6284 230.884C73.5147 234.801 75.7203 239.149 75.8105 239.329C75.8389 239.38 75.8484 239.432 75.8484 239.484H74.8571C74.4065 238.686 72.1155 234.889 67.026 231.499C67.0023 231.483 66.9833 231.467 66.9644 231.459C67.026 231.427 67.0877 231.395 67.1541 231.367L67.3201 231.188C67.2157 231.112 67.1066 231.044 66.9976 230.972Z" fill="black"/>
<path d="M66.7035 231.288L66.7984 231.347C66.8505 231.383 66.9027 231.415 66.9644 231.459C65.2378 232.278 64.2038 232.928 62.0931 233.328C59.4416 233.831 56.7427 233.87 54.0249 233.895C49.5899 233.935 45.9092 232.833 42.1715 230.996C38.7327 229.307 35.2844 226.556 34.6203 222.995C33.8614 218.943 38.486 214.227 43.7273 215.253C45.193 215.541 45.4823 216.866 46.1653 217.792C46.9432 218.85 47.6689 219.13 49.1678 219.258C53.0762 219.585 56.4629 217.05 60.5136 218.319C64.0805 219.433 66.7652 222.407 67.5098 225.486C67.8514 226.895 68.2308 229.263 67.2679 230.644C62.9469 227.85 57.8242 226.037 52.0517 225.25C51.7908 225.214 51.5489 225.366 51.5062 225.581C51.4635 225.801 51.6438 226.005 51.8999 226.041C57.5254 226.804 62.5105 228.569 66.7035 231.288Z" fill="#2260AA"/>
<path d="M66.7984 231.347L66.7036 231.287C62.5106 228.569 57.5254 226.804 51.9 226.041C51.6438 226.005 51.4636 225.801 51.5063 225.582C51.549 225.367 51.7909 225.215 52.0517 225.251C57.8242 226.038 62.9469 227.85 67.268 230.645C67.1874 230.761 67.0973 230.872 66.9976 230.972C67.1067 231.044 67.2158 231.112 67.3202 231.188L67.1542 231.367C67.0878 231.395 67.0261 231.427 66.9644 231.459C66.9028 231.415 66.8506 231.383 66.7984 231.347Z" fill="black"/>
<path d="M357.468 71.2667L355.571 78.4532L323.317 71.2667H357.468ZM340.521 33.3376L323.208 40.9234L334.354 30.2354L340.521 33.3376ZM324.631 111.056L319.888 115.384L306.844 96.3198L324.631 111.056ZM312.536 5.19024L293.8 24.1548L302.812 1.99622L312.536 5.19024Z" fill="#E22953"/>
<path d="M262.395 93.7167V93.7646C262.395 93.9842 262.608 94.1599 262.869 94.1599C263.111 94.1599 263.315 94.0042 263.339 93.8045C265.838 94.0481 268.152 94.3236 270.283 94.623C270.278 94.647 270.273 94.6669 270.273 94.6909C270.273 94.9105 270.486 95.0901 270.748 95.0901C270.979 95.0901 271.174 94.9464 271.212 94.7587V94.7547C278.773 95.8567 283.881 97.1782 286.551 97.9767C288.027 98.4199 288.762 98.7034 288.762 98.7034L285.793 104.505C285.289 104.381 284.787 104.257 284.284 104.141C266.862 100.049 250.659 99.9251 245.409 100.013C244.266 100.033 243.64 100.061 243.64 100.061L243.104 92.8743C244.232 92.8743 245.338 92.8823 246.419 92.8982C252.377 92.9821 257.699 93.2895 262.395 93.7167Z" fill="#A9D9FF"/>
<path d="M277.165 67.0865C277.905 65.3937 278.602 64.148 279.248 63.3815C280.234 62.2037 282.032 61.501 284.062 61.501C285.831 61.501 287.297 62.048 287.543 62.8105C287.786 63.5491 286.837 64.5193 284.94 65.4656C282.852 66.5076 280.239 67.0546 277.165 67.0865Z" fill="#FFC962"/>
<path d="M279.248 63.3815C278.602 64.148 277.905 65.3937 277.165 67.0865C280.238 67.0546 282.852 66.5076 284.939 65.4656C286.837 64.5193 287.785 63.5491 287.543 62.8105C287.296 62.048 285.831 61.501 284.061 61.501C282.032 61.501 280.234 62.2037 279.248 63.3815ZM276.648 67.1105C277.364 65.4496 278.114 64.0402 278.859 63.1499C282.34 58.9897 293.169 61.8164 285.181 65.8089C282.819 66.9867 279.954 67.4778 276.966 67.4898C276.966 67.4339 276.957 67.378 276.928 67.3301C276.917 67.3063 276.902 67.2835 276.885 67.2622C276.869 67.2395 276.848 67.2193 276.824 67.2023C276.804 67.1855 276.781 67.1708 276.757 67.1584C276.739 67.1464 276.72 67.1357 276.7 67.1265C276.681 67.1225 276.667 67.1145 276.648 67.1105ZM276.923 67.6495C276.89 67.7293 276.857 67.8092 276.828 67.889C276.715 67.889 276.606 67.885 276.492 67.885C276.686 67.885 276.852 67.7892 276.923 67.6495Z" fill="black"/>
<path d="M276.885 67.2622C276.904 67.2862 276.918 67.3101 276.928 67.3301C276.918 67.3055 276.904 67.2826 276.885 67.2622Z" fill="black"/>
<path d="M276.885 67.2622C276.904 67.2822 276.919 67.3061 276.928 67.3301C276.957 67.378 276.966 67.4339 276.966 67.4898C276.809 67.4898 276.648 67.4898 276.492 67.4858C276.544 67.358 276.597 67.2342 276.648 67.1105C276.667 67.1145 276.681 67.1225 276.7 67.1264C276.719 67.1344 276.743 67.1464 276.757 67.1584C276.781 67.1704 276.805 67.1863 276.824 67.2023C276.847 67.2183 276.871 67.2422 276.885 67.2622Z" fill="black"/>
<path d="M276.164 67.0786C276.98 65.1582 277.734 63.7967 278.469 62.9184C279.631 61.529 281.723 60.7025 284.061 60.7025C286.324 60.7025 288.088 61.4611 288.459 62.599C288.72 63.3975 288.402 64.6631 285.423 66.1523C283.118 67.3022 280.234 67.8891 276.857 67.8891H276.828C276.857 67.8092 276.89 67.7294 276.923 67.6495C276.952 67.6016 276.965 67.5457 276.965 67.4898C279.954 67.4778 282.819 66.9868 285.181 65.809C293.168 61.8164 282.34 58.9897 278.858 63.1499C278.113 64.0403 277.364 65.4496 276.648 67.1105C276.612 67.0973 276.573 67.0906 276.534 67.0906C276.529 67.0866 276.524 67.0866 276.52 67.0866H276.486C276.378 67.0866 276.273 67.0826 276.164 67.0786Z" fill="black"/>
<path d="M276.857 67.889C280.234 67.889 283.118 67.3021 285.423 66.1523C288.402 64.6631 288.72 63.3974 288.459 62.5989C288.089 61.4611 286.324 60.7025 284.061 60.7025C281.723 60.7025 279.631 61.5289 278.469 62.9183C277.734 63.7967 276.98 65.1581 276.164 67.0785C272.659 66.9907 268.66 66.2441 265.094 64.9944C264.961 61.8403 264.743 59.9319 264.444 59.1613C263.95 57.9157 262.461 57.1052 260.649 57.1052C259.369 57.1052 258.211 57.5364 257.547 58.251C257.115 58.7182 256.679 59.5366 257.054 60.7743C257.504 62.2556 260.218 64.0722 264.169 65.5294C264.401 71.4144 264.306 79.5472 264.277 81.5195L262.925 81.3838C262.859 81.3768 262.792 81.3817 262.728 81.3982C262.664 81.4147 262.606 81.4425 262.556 81.4796C262.504 81.5167 262.464 81.5627 262.436 81.6144C262.408 81.6661 262.394 81.7223 262.394 81.779V89.7042C255.269 88.0433 248.99 85.017 244.095 81.0564C236.971 75.2872 232.787 67.5457 233.214 59.1773C234.077 42.3847 253.207 29.4449 275.946 30.2714C298.68 31.0978 316.415 45.3831 315.552 62.1717C314.954 73.802 305.596 83.5837 292.343 88.223C286.462 90.2871 279.811 91.3332 272.825 91.0777C272.588 91.0697 272.351 91.0577 272.114 91.0457L274.092 82.9249C274.12 82.8171 274.087 82.7013 274.011 82.6095C273.973 82.5652 273.924 82.5281 273.867 82.5005C273.811 82.473 273.748 82.4558 273.684 82.4498L272.465 82.33C272.896 80.5094 274.689 73.1312 276.828 67.889H276.857Z" fill="#FFC962"/>
<path d="M276.757 67.1584C276.74 67.1455 276.721 67.1348 276.7 67.1265C276.719 67.1345 276.738 67.1464 276.757 67.1584ZM276.492 67.4858C276.648 67.4898 276.809 67.4898 276.966 67.4898C276.966 67.5457 276.952 67.6016 276.923 67.6495C276.852 67.7892 276.686 67.8851 276.492 67.8851H276.487C276.435 67.8851 276.387 67.8771 276.34 67.8611C276.387 67.7333 276.439 67.6096 276.492 67.4858Z" fill="black"/>
<path d="M276.487 67.0865H276.521C276.525 67.0865 276.53 67.0866 276.534 67.0905C276.574 67.0905 276.612 67.0973 276.648 67.1105C276.596 67.2343 276.544 67.358 276.492 67.4858C276.335 67.4858 276.179 67.4818 276.017 67.4738C276.017 67.4339 276.027 67.394 276.046 67.3541L276.075 67.2942C276.16 67.1664 276.321 67.0865 276.487 67.0865Z" fill="black"/>
<path d="M276.487 67.0866C276.321 67.0866 276.16 67.1664 276.074 67.2942C276.103 67.2223 276.131 67.1465 276.164 67.0786C276.273 67.0826 276.378 67.0866 276.487 67.0866ZM276.487 67.8851C276.435 67.8851 276.382 67.8851 276.33 67.8811C276.335 67.8731 276.335 67.8651 276.34 67.8611C276.387 67.8771 276.435 67.8851 276.487 67.8851ZM276.492 67.4858C276.44 67.6096 276.387 67.7334 276.34 67.8611C276.243 67.8366 276.159 67.7844 276.103 67.7134C276.043 67.6441 276.013 67.5596 276.017 67.4739C276.179 67.4819 276.335 67.4858 276.492 67.4858ZM276.046 67.3541C276.027 67.394 276.017 67.4339 276.017 67.4739H275.998C276.013 67.4339 276.031 67.394 276.046 67.3541Z" fill="black"/>
<path d="M276.103 67.7134C276.159 67.7853 276.245 67.8372 276.34 67.8612C276.335 67.8651 276.335 67.8731 276.33 67.8811C276.169 67.8811 276.003 67.8771 275.837 67.8691C275.889 67.7334 275.941 67.6016 275.998 67.4739H276.017C276.012 67.5596 276.043 67.6441 276.103 67.7134Z" fill="black"/>
<path d="M275.837 67.8691C273.693 73.1991 271.919 80.5374 271.521 82.2342L265.226 81.6114C265.25 79.8267 265.349 71.8257 265.131 65.8728C268.637 67.0546 272.384 67.7533 275.837 67.8691ZM272.114 91.0457C272.351 91.0577 272.588 91.0697 272.825 91.0777C279.811 91.3332 286.462 90.2872 292.343 88.223V88.227L286.552 97.9768C283.881 97.1783 278.773 95.8567 271.212 94.7548L272.114 91.0457Z" fill="#FFC962"/>
<path d="M274.092 82.925L272.114 91.0458L271.639 91.0218L273.627 82.8451L272.379 82.7214C272.389 82.6655 272.422 82.5337 272.465 82.3301L273.684 82.4499C273.817 82.4618 273.935 82.5217 274.011 82.6096C274.087 82.7014 274.12 82.8172 274.092 82.925Z" fill="black"/>
<path d="M273.058 83.1924L271.16 90.9898C268.523 90.8219 265.907 90.4612 263.344 89.9119V82.2302L264.648 82.358L271.906 83.0766L273.058 83.1924Z" fill="#FFC962"/>
<path d="M272.811 127.262C274.352 127.462 273.997 130.556 269.253 134.049C264.51 137.543 256.101 138.749 252.832 139.843C250.845 138.481 248.061 136.808 246.424 135.842C246.424 135.842 251.466 124.367 252.889 125.465C254.312 126.563 254.075 131.255 254.075 131.255C254.075 131.255 271.269 127.062 272.811 127.262Z" fill="#FDA181"/>
<path d="M276.828 67.8891C274.689 73.1313 272.896 80.5095 272.465 82.3301L271.996 82.2822C272.408 80.5255 274.182 73.1952 276.331 67.8811C276.383 67.8851 276.435 67.8851 276.487 67.8851H276.492C276.605 67.8851 276.715 67.8891 276.828 67.8891ZM271.16 90.9899L273.058 83.1925L271.905 83.0767V83.0727C272.128 83.0727 272.328 82.941 272.37 82.7493C272.37 82.7453 272.375 82.7373 272.379 82.7214L273.627 82.8451L271.64 91.0218C271.478 91.0139 271.317 91.0019 271.16 90.9899ZM272.114 91.0458L271.212 94.7549C271.061 94.7309 270.905 94.7109 270.748 94.687L271.64 91.0218L272.114 91.0458Z" fill="black"/>
<path d="M271.521 82.2343C271.919 80.5375 273.693 73.1992 275.837 67.8691C276.004 67.8771 276.169 67.8811 276.33 67.8811C274.182 73.1952 272.408 80.5255 271.995 82.2822L271.521 82.2343ZM272.465 82.3301C272.422 82.5337 272.389 82.6655 272.379 82.7214L271.905 82.6735C271.905 82.6735 271.938 82.5377 271.995 82.2822L272.465 82.3301Z" fill="black"/>
<path d="M271.44 82.5976C271.44 82.5856 271.469 82.4618 271.521 82.2343L271.995 82.2822C271.938 82.5377 271.905 82.6734 271.905 82.6734L271.435 82.6255C271.435 82.6175 271.44 82.6056 271.44 82.5976Z" fill="black"/>
<path d="M271.815 83.0646C271.697 83.0463 271.591 82.9906 271.521 82.9089C271.45 82.8271 271.419 82.7257 271.435 82.6254L271.905 82.6733L272.379 82.7213C272.374 82.7372 272.369 82.7452 272.369 82.7492C272.349 82.8403 272.291 82.9224 272.206 82.9814C272.121 83.0405 272.015 83.0727 271.905 83.0726C271.877 83.0726 271.848 83.0686 271.815 83.0646ZM271.16 90.9898C271.317 91.0018 271.479 91.0137 271.64 91.0217L270.748 94.6869C270.596 94.6669 270.44 94.643 270.283 94.623V94.607L271.16 90.9898ZM265.227 81.6113L271.521 82.2342C271.469 82.4617 271.441 82.5855 271.441 82.5975C271.441 82.6055 271.435 82.6175 271.435 82.6254L265.218 82.0146C265.222 82.0026 265.222 81.9866 265.222 81.9707C265.222 81.9587 265.222 81.8349 265.227 81.6113Z" fill="black"/>
<path d="M263.343 89.9119C265.857 90.4509 268.471 90.8182 271.16 90.9898L270.282 94.6071V94.6231C268.153 94.3236 265.838 94.0481 263.338 93.8046C263.343 93.7926 263.343 93.7766 263.343 93.7607L263.343 89.9119Z" fill="#FFC962"/>
<path d="M270.748 94.687C270.904 94.7109 271.06 94.7309 271.212 94.7548V94.7588C271.174 94.9465 270.98 95.0902 270.748 95.0902C270.486 95.0902 270.273 94.9106 270.273 94.691C270.273 94.667 270.278 94.6471 270.283 94.6231C270.439 94.6431 270.596 94.667 270.748 94.687ZM265.094 64.9945C268.661 66.2442 272.659 66.9908 276.164 67.0786C276.131 67.1465 276.103 67.2223 276.074 67.2942L276.046 67.3541C276.032 67.394 276.013 67.4339 275.998 67.4739C272.237 67.3661 268.347 66.5436 265.117 65.4337C265.112 65.3778 265.112 65.3219 265.108 65.266V65.254L265.094 64.9945Z" fill="black"/>
<path d="M265.117 65.4336C268.347 66.5435 272.237 67.366 275.998 67.4738C275.941 67.6015 275.889 67.7333 275.837 67.869C272.383 67.7532 268.636 67.0546 265.131 65.8728L265.117 65.4336ZM265.222 81.9707C265.222 81.9866 265.222 82.0026 265.217 82.0146L264.747 81.9667C264.747 81.9667 264.752 81.8229 264.752 81.5634L265.226 81.6113C265.222 81.8349 265.222 81.9587 265.222 81.9707Z" fill="black"/>
<path d="M264.752 81.5634C264.781 79.6869 264.881 71.6579 264.653 65.7051C264.814 65.761 264.976 65.8169 265.132 65.8728C265.35 71.8256 265.25 79.8267 265.227 81.6113L264.752 81.5634Z" fill="black"/>
<path d="M265.132 65.8729C264.976 65.817 264.814 65.7611 264.653 65.7052C264.653 65.6892 264.648 65.6772 264.648 65.6653C264.738 65.6613 264.828 65.6373 264.904 65.5934C264.98 65.5495 265.037 65.4896 265.07 65.4177C265.084 65.4257 265.099 65.4297 265.118 65.4337L265.132 65.8729Z" fill="black"/>
<path d="M265.07 65.4177C265.094 65.3698 265.108 65.3179 265.108 65.266C265.113 65.3219 265.113 65.3778 265.118 65.4336C265.101 65.4308 265.085 65.4254 265.07 65.4177ZM265.094 64.9945L265.107 65.254C265.103 65.0903 264.965 64.9545 264.8 64.8947C264.804 64.8947 264.813 64.8946 264.819 64.8986C264.909 64.9306 265.004 64.9625 265.094 64.9945ZM264.634 65.266C264.776 65.3179 264.923 65.3698 265.07 65.4177C265.037 65.4895 264.98 65.5494 264.904 65.5933C264.828 65.6373 264.738 65.6612 264.648 65.6652L264.634 65.266ZM264.752 81.5635C264.752 81.823 264.747 81.9667 264.747 81.9667L264.273 81.9188C264.273 81.8549 264.278 81.7192 264.278 81.5196L264.752 81.5635ZM271.905 83.0766L264.648 82.358C264.676 82.362 264.709 82.366 264.743 82.366H264.747C264.989 82.366 265.189 82.2143 265.217 82.0146L271.435 82.6255C271.402 82.8331 271.568 83.0247 271.815 83.0647C271.848 83.0687 271.876 83.0727 271.904 83.0727V83.0766H271.905ZM264.278 81.5196C264.307 79.5472 264.401 71.4145 264.169 65.5295C264.259 65.5654 264.354 65.5973 264.449 65.6333C264.515 65.6572 264.587 65.6812 264.653 65.7051C264.881 71.658 264.781 79.687 264.752 81.5635L264.278 81.5196Z" fill="black"/>
<path d="M264.615 64.8667C264.676 64.8627 264.743 64.8747 264.8 64.8947C264.966 64.9546 265.104 65.0903 265.108 65.254V65.266C265.108 65.3179 265.094 65.3698 265.07 65.4177C264.923 65.3698 264.776 65.3179 264.634 65.266C264.629 65.1302 264.624 64.9985 264.615 64.8667ZM264.653 65.7052C264.586 65.6812 264.515 65.6573 264.449 65.6333C264.506 65.6533 264.572 65.6652 264.634 65.6652H264.648C264.648 65.6772 264.653 65.6892 264.653 65.7052Z" fill="black"/>
<path d="M264.634 65.266C264.487 65.214 264.345 65.1582 264.197 65.1063C264.233 65.0373 264.291 64.9782 264.365 64.9358C264.439 64.8934 264.525 64.8695 264.615 64.8667C264.624 64.9985 264.629 65.1302 264.634 65.266Z" fill="black"/>
<path d="M264.52 64.8787C264.49 64.8831 264.461 64.8911 264.434 64.9026C264.463 64.8946 264.491 64.8827 264.52 64.8787ZM264.449 65.6333C264.365 65.6045 264.293 65.5559 264.242 65.4936C264.191 65.4313 264.162 65.3577 264.159 65.2819C264.159 65.25 264.159 65.218 264.169 65.1861C264.174 65.1581 264.183 65.1342 264.198 65.1102V65.1062C264.345 65.1581 264.487 65.214 264.634 65.2659C264.639 65.3977 264.644 65.5294 264.648 65.6652H264.634C264.572 65.6652 264.505 65.6532 264.449 65.6333ZM264.273 81.9188L264.747 81.9667L265.217 82.0146C265.188 82.2143 264.989 82.366 264.747 82.366H264.743C264.68 82.3655 264.619 82.3548 264.561 82.3343C264.504 82.3138 264.452 82.2839 264.408 82.2464C264.365 82.209 264.33 82.1646 264.307 82.1159C264.284 82.0672 264.272 82.0152 264.273 81.9627V81.9188Z" fill="black"/>
<path d="M264.159 65.282C264.164 65.4337 264.273 65.5694 264.449 65.6333C264.354 65.5974 264.259 65.5655 264.169 65.5295C264.164 65.4457 264.164 65.3618 264.159 65.282Z" fill="black"/>
<path d="M264.131 64.6431C260.763 63.3415 258.325 61.7445 257.974 60.5747C257.751 59.8321 257.861 59.2172 258.297 58.7421C258.781 58.2191 259.663 57.9037 260.65 57.9037C261.707 57.9037 263.102 58.2989 263.543 59.4129C263.723 59.872 263.965 61.1576 264.131 64.6431Z" fill="#FFC962"/>
<path d="M262.869 81.7791L264.273 81.9188V81.9627C264.268 82.1544 264.43 82.318 264.648 82.358L263.343 82.2302V89.9119C263.182 89.8799 263.026 89.848 262.869 89.812V81.7791Z" fill="black"/>
<path d="M262.869 93.7607V89.812C263.026 89.848 263.182 89.8799 263.343 89.9119V93.7607C263.343 93.7766 263.343 93.7926 263.339 93.8046C263.182 93.7886 263.026 93.7766 262.869 93.7607ZM262.926 81.3838L264.278 81.5195C264.278 81.7192 264.273 81.8549 264.273 81.9188L262.869 81.7791V89.812L262.395 89.7042V81.7791C262.395 81.6633 262.452 81.5555 262.556 81.4796C262.656 81.4038 262.788 81.3718 262.926 81.3838Z" fill="black"/>
<path d="M262.869 89.812V93.7606C262.713 93.7447 262.551 93.7327 262.395 93.7167V89.7042L262.869 89.812Z" fill="black"/>
<path d="M262.869 93.7607C263.026 93.7767 263.182 93.7887 263.339 93.8046C263.315 94.0043 263.111 94.16 262.869 94.16C262.608 94.16 262.395 93.9843 262.395 93.7647V93.7168C262.551 93.7328 262.713 93.7447 262.869 93.7607Z" fill="black"/>
<path d="M262.395 89.7042V93.7167C257.699 93.2895 252.377 92.9821 246.42 92.8983L244.095 81.0564C248.99 85.017 255.27 88.0433 262.395 89.7042Z" fill="#FFC962"/>
<path d="M261.071 0L260.028 18.166L255.152 0H261.071Z" fill="#E22953"/>
<path d="M248.184 106.441C252.866 106.549 266.213 107.096 279.907 109.902L279.807 110.254L278.621 115.384C260.028 112.39 248.265 111.991 248.265 111.991L248.175 106.732L248.184 106.441Z" fill="#2260AA"/>
<path d="M263.543 59.4129C263.102 58.299 261.707 57.9037 260.649 57.9037C259.663 57.9037 258.78 58.2191 258.297 58.7421C257.86 59.2172 257.751 59.8321 257.974 60.5747C258.325 61.7445 260.763 63.3415 264.13 64.6431C263.965 61.1576 263.723 59.872 263.543 59.4129ZM257.514 60.6745C256.409 57.0054 262.888 56.4943 263.993 59.2891C264.301 60.0716 264.496 62.2037 264.615 64.8667C264.582 64.8667 264.553 64.8707 264.52 64.8787C264.491 64.8826 264.463 64.8946 264.434 64.9026C264.328 64.9436 264.244 65.0161 264.197 65.1062C260.564 63.7408 257.927 62.04 257.514 60.6745Z" fill="black"/>
<path d="M263.993 59.2891C262.888 56.4944 256.409 57.0054 257.514 60.6746C257.927 62.04 260.564 63.7408 264.197 65.1063V65.1103C264.183 65.1342 264.173 65.1622 264.169 65.1861C264.159 65.2181 264.159 65.25 264.159 65.2819C264.163 65.3618 264.163 65.4456 264.169 65.5295C260.218 64.0722 257.504 62.2556 257.054 60.7744C256.679 59.5367 257.115 58.7182 257.547 58.2511C258.211 57.5364 259.369 57.1052 260.649 57.1052C262.461 57.1052 263.95 57.9157 264.444 59.1614C264.743 59.9319 264.961 61.8404 265.094 64.9945C265.003 64.9625 264.908 64.9306 264.818 64.8986C264.813 64.8947 264.804 64.8947 264.799 64.8947C264.741 64.8735 264.678 64.864 264.614 64.8667C264.496 62.2037 264.301 60.0717 263.993 59.2891Z" fill="black"/>
<path d="M246.424 135.842C248.061 136.808 250.845 138.481 252.833 139.843C254.028 140.661 254.939 141.364 255.142 141.735C255.299 142.022 253.843 143.164 251.433 144.777C247.862 141.695 240.04 137.699 240.04 137.699C243 136.145 245.063 135.047 245.063 135.047C245.063 135.047 245.599 135.355 246.424 135.842Z" fill="#A9D9FF"/>
<path d="M284.076 104.804L281.586 110.254C281.026 110.13 280.466 110.014 279.907 109.902C266.213 107.096 252.866 106.549 248.184 106.441C247.05 106.417 246.424 106.417 246.424 106.417L245.419 100.512L245.409 100.013C250.659 99.9251 266.862 100.049 284.285 104.141L284.076 104.804Z" fill="#3E89FC"/>
<path d="M230.293 17.0242L234.509 33.3377L222.367 18.8208L230.293 17.0242ZM227.869 85.041L210.556 96.3199L207.236 91.1176L227.869 85.041ZM219.094 60.6745L191.967 57.5045L193.955 50.3059L219.094 60.6745Z" fill="#E22953"/>
<path d="M219.568 162.496C215.536 163.195 203.085 156.108 203.085 156.108L202.72 156.012C203.043 155.11 203.27 154.327 203.323 153.812C203.441 152.643 201.99 149.265 200.538 146.234C205.172 152.06 212.728 160.077 220.564 162.193C220.142 162.352 219.805 162.456 219.568 162.496Z" fill="#2260AA"/>
<path d="M193.153 302.55C199.239 303.992 204.708 303.025 206.747 302.554L206.999 304.531C206.999 304.531 220.873 306.926 223.6 307.733C226.327 308.54 225.853 312.915 225.853 312.915L192.295 311.218L193.153 302.55Z" fill="#1E1950"/>
<path d="M189.468 199.04V199.035C191.541 198.776 193.604 198.445 195.615 198.029C213.046 194.436 213.758 193.039 213.758 193.039C213.758 193.039 214.194 235.292 209.925 257.849C209.925 257.849 209.252 298.541 207.592 302.334C207.592 302.334 207.293 302.426 206.747 302.554C204.708 303.025 199.239 303.991 193.153 302.55C192.869 302.486 192.584 302.414 192.295 302.334C192.295 302.334 192.451 264.505 193.163 259.315C193.874 254.124 185.374 213.5 185.374 213.5L185.08 213.436C187.632 205.08 189.468 199.04 189.468 199.04Z" fill="#2260AA"/>
<path d="M188.026 118.878C188.026 118.878 201.041 120.87 193.623 129.829C191.099 129.941 187.395 130.212 184.592 130.432C182.339 130.612 180.674 130.755 180.674 130.755L179.379 126.464L178.658 124.068C178.658 124.068 187.67 120.674 188.026 118.878Z" fill="#1E1950"/>
<path d="M187.276 138.21V140.338L179.227 136.05L187.276 138.21Z" fill="#2260AA"/>
<path d="M184.592 130.432L187.276 138.21L179.227 136.05L177.354 135.547L180.674 130.756C180.674 130.756 182.339 130.612 184.592 130.432Z" fill="#A9D9FF"/>
<path d="M175.921 110.246C176.357 110.166 176.566 109.531 176.381 108.832C176.201 108.13 175.698 107.627 175.262 107.707C174.825 107.786 174.617 108.421 174.797 109.12C174.982 109.823 175.485 110.326 175.921 110.246ZM180.769 107.842C180.954 108.545 181.456 109.048 181.893 108.968C182.329 108.888 182.538 108.254 182.353 107.551C182.173 106.852 181.67 106.345 181.233 106.429C180.797 106.509 180.588 107.14 180.769 107.842ZM179.811 110.262C179.867 110.461 180.935 114.123 181.86 115.384L183.913 113.188C182.154 112.541 179.948 110.394 179.811 110.262ZM161.464 115.085C161.701 111.691 165.495 112.09 165.495 112.09L165.661 109.495C165.661 109.495 169.295 107.523 171.804 104.453C171.975 104.413 172.131 104.377 172.278 104.349C172.791 104.289 173.934 104.213 174.655 104.345C174.911 104.389 175.162 104.253 175.219 104.037C175.244 103.934 175.22 103.826 175.152 103.737C175.084 103.648 174.977 103.585 174.854 103.562C174.076 103.423 173.056 103.474 172.511 103.522C173.929 101.454 174.716 98.9789 173.678 96.3198C173.678 96.3198 180.128 96.4157 182.471 101.965C181.072 102.185 180.029 102.632 179.981 102.652C179.749 102.756 179.659 102.995 179.777 103.191C179.863 103.327 180.029 103.407 180.199 103.407C180.275 103.407 180.346 103.391 180.418 103.363C180.427 103.359 181.414 102.931 182.704 102.736C182.728 102.732 182.747 102.728 182.77 102.728C183.273 104.013 183.828 105.439 184.383 106.892C186.328 112.006 188.296 117.52 188.026 118.878C187.67 120.674 178.658 124.068 178.658 124.068C178.658 124.068 176.049 124.807 172.61 123.617C172.61 123.617 174.716 126.04 179.379 126.463L180.674 130.755L177.354 135.546L168.46 133.251C172.255 125.565 167.156 117.78 167.156 117.78C167.156 117.78 161.227 118.478 161.464 115.085ZM181.561 120.307C183.202 119.377 183.363 117.181 183.363 117.181C183.363 117.181 179.488 118.247 176.011 117.979C176.011 117.979 179.92 121.241 181.561 120.307Z" fill="#FDA181"/>
<path d="M183.913 113.188L181.86 115.384C180.935 114.123 179.867 110.461 179.811 110.262C179.948 110.394 182.154 112.542 183.913 113.188Z" fill="#F77556"/>
<path d="M183.363 117.181C183.363 117.181 183.202 119.377 181.561 120.307C179.92 121.241 176.011 117.979 176.011 117.979C179.488 118.247 183.363 117.181 183.363 117.181Z" fill="white"/>
<path d="M184.568 102.672C184.018 102.616 183.415 102.64 182.77 102.728C182.723 102.6 182.671 102.472 182.623 102.345C182.604 102.301 182.59 102.253 182.571 102.209C182.538 102.125 182.505 102.045 182.471 101.965L182.538 101.953C183.301 101.838 184.018 101.814 184.682 101.881C184.938 101.905 185.128 102.105 185.094 102.325C185.066 102.54 184.829 102.7 184.568 102.672Z" fill="black"/>
<path d="M181.893 108.968C181.456 109.048 180.954 108.545 180.769 107.842C180.588 107.14 180.797 106.509 181.233 106.429C181.67 106.345 182.173 106.852 182.353 107.551C182.538 108.254 182.329 108.888 181.893 108.968Z" fill="#231F20"/>
<path d="M182.704 102.736C181.414 102.932 180.427 103.359 180.418 103.363C180.346 103.391 180.275 103.407 180.199 103.407C180.029 103.407 179.863 103.327 179.777 103.191C179.659 102.995 179.749 102.756 179.981 102.652C180.029 102.632 181.072 102.185 182.471 101.965C182.505 102.045 182.538 102.125 182.571 102.209C182.59 102.253 182.604 102.301 182.623 102.345C182.671 102.472 182.723 102.6 182.77 102.728C182.747 102.728 182.728 102.732 182.704 102.736Z" fill="black"/>
<path d="M178.658 124.068L179.379 126.464C174.716 126.04 172.61 123.617 172.61 123.617C176.049 124.807 178.658 124.068 178.658 124.068Z" fill="#F77556"/>
<path d="M177.354 135.547L172.767 141.667L168.137 135.551L168.133 135.547L166.586 133.506V133.502L168.46 133.251L177.354 135.547Z" fill="#A9D9FF"/>
<path d="M175.262 107.707C175.698 107.627 176.201 108.13 176.381 108.832C176.566 109.531 176.358 110.166 175.921 110.246C175.485 110.326 174.982 109.823 174.797 109.12C174.617 108.421 174.825 107.786 175.262 107.707Z" fill="#231F20"/>
<path d="M173.085 145.129L168.137 135.551L172.767 141.667L177.354 135.547L179.227 136.05L173.085 145.129Z" fill="#2260AA"/>
<path d="M174.655 104.345C173.934 104.213 172.791 104.289 172.278 104.349C172.131 104.377 171.975 104.413 171.804 104.453C171.942 104.289 172.07 104.121 172.198 103.954H172.202C172.307 103.814 172.411 103.67 172.511 103.522C173.056 103.474 174.076 103.423 174.854 103.562C175.11 103.61 175.271 103.822 175.219 104.037C175.162 104.253 174.911 104.389 174.655 104.345Z" fill="black"/>
<path d="M171.804 104.453C170.723 104.704 169.262 105.143 168.802 105.547C168.758 105.586 168.705 105.618 168.646 105.639C168.588 105.66 168.524 105.671 168.46 105.67C168.341 105.67 168.223 105.635 168.133 105.559C168.088 105.523 168.052 105.479 168.027 105.431C168.002 105.384 167.988 105.332 167.987 105.28C167.986 105.227 167.997 105.175 168.019 105.127C168.042 105.078 168.076 105.033 168.119 104.996C169.015 104.197 171.776 103.626 172.089 103.566L172.16 103.554C172.217 103.55 172.34 103.534 172.511 103.522C172.411 103.67 172.307 103.814 172.202 103.954H172.198C172.07 104.121 171.942 104.289 171.804 104.453Z" fill="black"/>
<path d="M157.579 192.44C157.603 191.642 155.81 188.008 155.81 188.008L156.905 187.573C156.905 187.573 163.48 175.771 162.768 172.577C162.446 171.12 157.005 159.925 154.112 154.028C153.049 151.868 152.333 150.418 152.333 150.418L151.954 150.354L149.16 161.865L144.862 168.685L154.306 183.501C148.837 184.642 145.266 186.747 143.591 187.925C139.171 181.899 131.074 170.781 130.988 169.982C130.87 168.884 147.115 137.144 147.708 136.545C147.846 136.405 149.051 136.149 150.815 135.846C155.193 135.083 163.015 133.993 166.586 133.502V133.506L168.133 135.547L168.137 135.551L173.085 145.129L179.227 136.05L187.276 140.338V138.21L184.592 130.432C187.395 130.213 191.099 129.941 193.623 129.829C195.145 129.765 196.236 129.757 196.445 129.857C197.275 130.256 217.789 148.223 219.212 148.123C220.223 148.051 232.811 141.499 240.04 137.699C240.04 137.699 247.862 141.695 251.433 144.777C243.602 150.023 225.706 160.244 220.564 162.193C212.728 160.077 205.172 152.06 200.538 146.235C201.99 149.265 203.441 152.643 203.323 153.812C203.27 154.327 203.043 155.11 202.72 156.012C201.615 159.107 199.409 163.594 199.409 163.594C199.409 163.594 210.793 181.061 213.758 193.039C213.758 193.039 213.046 194.436 195.615 198.03C193.604 198.445 191.54 198.776 189.468 199.036C173.573 201.06 156.991 199.04 156.991 199.04C157.332 196.029 157.565 192.847 157.579 192.44Z" fill="#3E89FC"/>
<path d="M161.464 115.085C161.227 118.478 167.156 117.78 167.156 117.78C167.156 117.78 172.255 125.565 168.46 133.251L166.586 133.502C163.015 133.993 155.193 135.083 150.815 135.846V135.842C150.801 135.842 146.523 135.838 145.93 130.157C145.337 124.467 153.875 121.573 154.705 118.079C155.535 114.586 150.08 111.691 151.029 106.102C151.977 100.512 157.313 93.4253 172.61 91.3292C187.907 89.2331 190.103 100.596 184.383 106.892C183.828 105.439 183.273 104.013 182.77 102.728C183.415 102.64 184.018 102.616 184.568 102.672C184.63 102.678 184.692 102.675 184.752 102.661C184.812 102.647 184.868 102.623 184.917 102.591C184.966 102.558 185.007 102.518 185.037 102.472C185.068 102.427 185.087 102.377 185.094 102.325C185.102 102.273 185.098 102.22 185.081 102.17C185.064 102.119 185.036 102.072 184.998 102.031C184.959 101.99 184.912 101.955 184.857 101.93C184.803 101.904 184.744 101.888 184.682 101.881C184.018 101.814 183.302 101.838 182.538 101.953L182.471 101.965C180.128 96.4157 173.677 96.3199 173.677 96.3199C174.716 98.9789 173.929 101.454 172.511 103.522C172.34 103.534 172.217 103.55 172.16 103.554L172.089 103.566C171.775 103.626 169.015 104.197 168.118 104.996C167.938 105.155 167.943 105.407 168.133 105.559C168.223 105.634 168.341 105.67 168.46 105.67C168.583 105.67 168.711 105.63 168.801 105.547C169.262 105.143 170.722 104.704 171.804 104.453C169.295 107.523 165.661 109.495 165.661 109.495L165.495 112.09C165.495 112.09 161.701 111.691 161.464 115.085Z" fill="#1E1950"/>
<path d="M154.306 183.501L156.906 187.573L155.81 188.008L147.799 191.19L146.404 191.741C146.404 191.741 145.261 190.196 143.591 187.925C145.266 186.747 148.837 184.643 154.306 183.501Z" fill="#A9D9FF"/>
<path d="M155.81 188.008C155.81 188.008 157.603 191.642 157.579 192.44C157.565 192.847 157.332 196.029 156.991 199.04C156.664 201.934 156.237 204.665 155.81 204.617C155.483 204.581 154.662 204.162 153.685 203.471C152.063 202.318 150.018 200.409 149.131 198.229C147.708 194.736 147.799 191.19 147.799 191.19L155.81 188.008Z" fill="#FDA181"/>
<path d="M151.74 263.507C152.096 257.818 153.5 204.222 153.685 203.472C154.662 204.162 155.482 204.581 155.81 204.617C156.237 204.665 156.663 201.934 156.991 199.04C156.991 199.04 173.573 201.06 189.468 199.035V199.04C189.468 199.04 187.632 205.081 185.08 213.437C179.597 231.359 170.817 259.926 169.764 262.309C169.764 262.309 168.934 278.551 158.618 299.412C158.618 299.412 158.238 299.516 157.55 299.64C155.444 300.023 150.44 300.614 144.521 299.109C143.857 298.937 143.178 298.741 142.491 298.514C142.491 298.514 151.384 269.197 151.74 263.507Z" fill="#2260AA"/>
<path d="M144.521 299.109C150.44 300.614 155.445 300.023 157.551 299.64L156.246 310.719L124.111 311.218C124.111 311.218 124.111 307.924 125.059 306.327C126.008 304.73 142.491 302.235 142.491 302.235L144.521 299.109Z" fill="#1E1950"/>
<path d="M152.333 150.419C152.333 150.419 153.049 151.868 154.112 154.028L154.102 154.032L149.16 161.865L151.953 150.355L152.333 150.419Z" fill="#2260AA"/>
<path d="M303.998 55.0303C303.532 51.2984 299.641 45.3939 296.093 43.3178C295.088 42.7293 291.733 41.3622 290.465 42.308C288.387 43.8575 291.465 46.5313 292.614 47.5774C294.532 49.3233 296.645 51.1032 297.919 53.1534C298.866 54.6765 299.209 56.6927 300.441 58.0243C303.894 61.7573 305.662 57.0361 303.681 54.2317M302.733 65.4108C302.292 66.3275 300.979 69.8985 301.462 71.0004C302.201 72.684 304.462 73.134 305.847 71.5326C308.034 69.0021 303.383 63.4721 302.1 66.7416" fill="white"/>
</svg>
