<svg width="564" height="530" viewBox="0 0 564 530" fill="none" xmlns="http://www.w3.org/2000/svg">
<path d="M513.205 355.866C545.98 297.199 532.78 219.148 474.441 173.683C442.502 148.825 400.583 140.84 369.224 114.887C334.002 85.7144 299.166 50.2952 253.19 39.2187C204.316 27.4338 150.485 44.8858 116.486 81.5929C75.0172 126.221 79.2027 189.01 97.7476 243.684C144.818 382.27 329.945 491.747 465.555 405.775C486.482 392.509 502.387 375.25 513.205 355.866Z" fill="#CCE9FF"/>
<path d="M517.132 150.757C517.132 154.556 514.235 157.583 510.629 157.583H506.25V173.554L490.989 157.583H440.892C437.286 157.583 434.389 154.556 434.389 150.757V93.7642C434.389 89.9647 437.286 86.938 440.892 86.938H510.564C514.17 86.938 517.068 90.0291 517.068 93.7642V150.757H517.132Z" fill="#FFBE55"/>
<path d="M403.931 178.77C403.931 182.57 406.828 185.597 410.434 185.597H414.813V201.567L430.074 185.597H480.171C483.777 185.597 486.674 182.57 486.674 178.77V121.778C486.674 117.978 483.777 114.951 480.171 114.951H410.434C406.828 114.951 403.931 118.043 403.931 121.778V178.77Z" fill="#2A94F4"/>
<path d="M360.209 302.029L368.322 296.104L369.159 294.945L367.678 293.271L365.746 293.786L365.231 288.248L355.701 287.99L350.679 286.573L357.375 300.741L360.209 302.029Z" fill="#FFE3CA"/>
<path d="M376.951 244.586L350.743 285.865C350.743 285.865 352.739 291.081 354.864 287.861C355.122 287.475 353.383 286.638 355.186 285.35C362.398 280.198 375.148 271.118 381.007 263.905C388.734 254.439 389.056 241.752 389.056 241.752L376.951 244.586Z" fill="#FFE3CA"/>
<path d="M365.489 281.872L355.959 275.626L363.235 265.708L372.765 271.891L365.489 281.872Z" fill="white"/>
<path d="M348.039 196.866L374.955 232.092L357.826 271.633C357.826 271.633 369.159 282.194 371.606 279.554C391.632 258.045 398.586 230.74 398.586 230.74L364.137 174.456C364.137 174.456 360.209 165.569 352.353 167.05C336.513 170.012 346.107 193.067 348.039 196.866Z" fill="#0E538C"/>
<path d="M287.124 472.17C286.481 472.943 286.867 475.004 286.867 475.004C286.867 475.004 298.071 476.485 301.741 475.776C302.707 475.583 304.317 474.81 305.798 473.973C306.056 473.845 306.506 473.007 306.764 472.814C307.215 472.557 307.472 473.007 307.859 472.75C308.889 472.17 309.597 471.655 309.597 471.591C310.692 466.503 309.469 464.378 309.469 464.378C309.469 464.378 300.003 460.965 298.136 463.154C293.757 468.306 288.541 470.496 287.124 472.17ZM345.721 465.859L346.816 474.231L355.38 474.682C355.38 474.682 355.895 473.523 356.668 473.587C357.247 473.651 357.956 474.811 358.793 474.875C360.596 475.004 362.592 475.068 363.365 475.132C364.974 475.197 380.493 476.098 380.493 476.098C380.493 476.098 381.008 474.36 380.557 473.716C380.364 473.394 378.947 472.75 377.982 472.428C373.667 470.947 361.24 466.374 359.308 462.124C356.99 456.972 345.721 465.859 345.721 465.859Z" fill="#0B4870"/>
<path d="M327.756 257.53L296.976 256.821C296.976 256.821 292.533 275.561 292.147 291.403C291.567 313.943 291.181 336.225 291.632 350.07C291.117 352.26 290.924 354.514 291.052 356.704C292.018 373.383 296.204 461.931 296.204 461.931C296.204 461.931 309.533 463.476 309.726 461.866C312.881 435.334 316.68 392.509 316.745 376.216C316.809 371.129 317.002 366.041 317.26 361.276C319.385 353.097 327.756 257.53 327.756 257.53Z" fill="#0B4870"/>
<path d="M363.622 464.893L353.899 367.007C353.899 366.943 353.963 366.943 353.963 366.943L350.228 270.152L308.953 267.383C308.953 267.383 311.529 273.307 317.067 298.809C317.067 298.809 323.699 350.457 330.718 377.118C330.846 377.697 331.04 378.148 331.168 378.663C333.229 405.26 344.884 469.659 344.884 469.659L363.622 464.893Z" fill="#0B4870"/>
<path d="M239.088 203.177C239.088 203.177 226.596 193.324 208.759 172.91C202.707 166.019 205.669 173.49 206.699 182.119C207.729 190.748 224.535 207.878 242.952 212.708C261.368 217.538 239.088 203.177 239.088 203.177Z" fill="#FFE3CA"/>
<path d="M210.176 178.32C210.176 178.32 213.009 169.046 211.528 166.728C210.047 164.409 204.058 156.36 204.058 156.36L202.32 154.428C202.32 154.428 199.229 155.2 203.286 160.61C207.342 166.019 203.994 164.474 203.994 164.474L198.521 161.061L191.438 157.39L188.54 155.329C188.54 155.329 186.995 154.041 186.351 154.041C184.548 154.106 185.256 155.522 185.256 155.522L196.009 164.474L183.968 159C183.968 159 182.294 158.549 181.779 159.322C181.264 160.03 181.779 160.288 181.779 160.288L194.013 169.819L187.445 167.694C187.445 167.694 185.835 167.307 185.256 168.016C184.676 168.789 184.483 168.982 184.483 168.982L208.566 180.638L210.176 178.32Z" fill="#FFE3CA"/>
<path d="M209.789 190.62L203.865 182.892L213.846 175.808L219.77 183.536L209.789 190.62Z" fill="white"/>
<path d="M313.782 178.899C313.782 178.899 315.392 186.176 287.703 215.542C272.249 231.964 263.685 239.885 256.022 236.214C240.375 228.744 203.414 193.775 203.414 193.775L217.902 177.289C217.902 177.289 252.932 205.431 258.34 208.394C260.594 209.617 274.567 189.654 288.798 169.433C291.374 165.697 311.915 176.903 313.782 178.899Z" fill="#0E538C"/>
<path d="M290.729 172.331L311.142 161.447L326.467 158.034L335.096 162.606C335.096 162.606 353.061 172.91 354.864 172.91C356.667 172.91 354.284 268.993 354.284 268.993L308.244 270.538L291.502 271.891L290.729 172.331Z" fill="white"/>
<path d="M304.446 299.518L304.059 181.475L310.627 162.027C302.192 163.057 293.692 163.894 287.639 171.3L286.352 288.183L304.446 299.518ZM330.46 161.447L337.414 174.198L336.062 254.245L341.6 300.29L358.986 293.464L362.141 184.888L356.732 166.921L330.46 161.447Z" fill="#0E538C"/>
<path d="M301.612 231.77L294.593 185.275L299.294 181.861L294.207 177.74L298.65 164.281L311.207 160.288L305.604 181.475L302.836 256.564L301.612 231.77Z" fill="#0B4870"/>
<path d="M312.043 170.463C312.043 170.463 305.025 201.052 311.206 257.208C311.592 260.814 316.422 262.81 316.422 262.81L321.123 257.015C321.123 257.015 316.164 208.716 315.585 173.618C315.456 169.239 311.85 174.649 312.043 170.463Z" fill="#FFBE55"/>
<path d="M314.555 166.985L319.835 173.94L330.782 162.027V160.03L314.555 166.985ZM311.464 159.451L307.536 174.456L312.752 168.209L311.464 159.451Z" fill="#F2F2F2"/>
<path d="M332.521 150.306C332.005 152.818 331.039 158.098 330.009 160.352C328.399 163.83 314.169 166.921 312.044 167.436C309.855 167.951 312.559 156.939 312.559 154.428C312.559 152.496 313.847 153.14 312.301 150.371H332.521V150.306Z" fill="#FCD2B1"/>
<path d="M308.309 144.768C307.923 146.893 309.468 148.954 311.722 149.276L330.009 152.109C332.263 152.431 334.388 151.015 334.71 148.825L339.024 122.937C339.411 120.812 337.865 118.751 335.611 118.429L317.324 115.66C315.07 115.338 312.945 116.755 312.624 118.944L308.309 144.768Z" fill="#FFE3CA"/>
<path d="M311.722 125.448C311.722 125.448 309.661 122.55 309.468 120.94C309.339 120.103 310.627 117.334 312.881 116.497C315.134 115.66 316.422 118.042 316.422 118.042C316.422 118.042 312.881 119.266 312.623 119.91C312.365 120.554 311.722 125.448 311.722 125.448Z" fill="#FFBE55"/>
<path d="M338.96 134.851C338.96 134.851 343.403 125.32 343.403 122.357C343.403 119.33 343.403 117.27 339.732 116.368C334.259 115.016 334.002 116.175 331.555 114.114C329.108 112.118 324.922 107.417 323.313 106.773C320.608 105.678 316.101 105.936 315.07 110.894C314.298 114.565 311.722 115.08 311.786 115.273C311.915 115.724 312.881 116.368 314.491 117.463C319.191 120.683 322.153 121.649 326.21 121.262C330.267 120.876 337.865 119.91 338.251 122.808C338.638 125.706 336.899 134.078 337.092 134.722C337.286 135.43 338.251 135.237 338.96 134.851Z" fill="#FFBE55"/>
<path d="M331.941 141.741C331.812 142.45 332.327 143.158 333.1 143.222L337.028 143.802C337.8 143.931 338.509 143.416 338.573 142.707L339.732 135.816C339.861 135.108 339.346 134.4 338.573 134.335L334.645 133.756C333.872 133.627 333.164 134.142 333.1 134.851L331.941 141.741ZM308.373 138.135C308.244 138.843 308.76 139.552 309.532 139.616L313.46 140.196C314.233 140.324 314.941 139.809 315.006 139.101L316.165 132.21C316.293 131.502 315.778 130.793 315.006 130.729L311.078 130.149C310.305 130.021 309.661 130.536 309.532 131.244L308.373 138.135Z" fill="#FFE3CA"/>
<path d="M336.834 136.847C336.834 136.847 335.096 147.022 334.581 150.435C334.065 153.526 331.619 160.03 313.46 157.261C302.707 155.651 304.381 148.117 304.767 145.67C305.089 143.802 308.244 138.457 309.596 137.555C309.661 137.555 308.888 141.741 308.888 141.741C308.888 141.741 311.786 138.006 316.937 138.779C325.179 140.067 326.274 144.961 329.944 145.412C332.778 145.798 335.611 141.741 336.834 136.847Z" fill="#FFBE55"/>
<path d="M319.191 145.992L313.524 145.154C312.752 145.026 312.237 144.382 312.365 143.673L312.494 142.9L320.865 144.188L320.736 144.961C320.672 145.605 319.964 146.12 319.191 145.992Z" fill="#FFE3CA"/>
<path d="M311.98 167.436L314.555 166.985L316.294 172.846L312.881 174.713L310.241 173.876L311.98 167.436Z" fill="#FFBE55"/>
<path d="M330.331 159.064C329.752 160.803 336.706 174.971 336.706 174.971L336.126 249.351L348.619 186.047L344.691 181.153L349.005 177.032L341.149 162.284L330.331 159.064Z" fill="#0B4870"/>
<path d="M130.265 82.9453L124.277 113.084L118.288 143.222C118.288 143.222 152.48 132.532 191.373 140.196L194.013 126.93L196.653 113.535C157.825 105.871 130.265 82.9453 130.265 82.9453Z" fill="#F2F2F2"/>
<path d="M185.965 173.168L182.552 171.558L198.07 138.586L206.763 142.707L193.563 170.656C192.146 173.747 189.055 174.649 185.965 173.168Z" fill="#FFBE55"/>
<mask id="mask0_25_1426" style="mask-type:luminance" maskUnits="userSpaceOnUse" x="182" y="138" width="25" height="36">
<path d="M185.965 173.168L182.552 171.558L198.07 138.586L206.763 142.707L193.563 170.656C192.146 173.747 189.055 174.649 185.965 173.168Z" fill="white"/>
</mask>
<g mask="url(#mask0_25_1426)">
<path d="M206.377 138.586H206.763V174.649H206.377V138.586ZM205.99 138.586H206.377V174.649H205.99V138.586Z" fill="#FFBE55"/>
</g>
<mask id="mask1_25_1426" style="mask-type:luminance" maskUnits="userSpaceOnUse" x="182" y="138" width="25" height="36">
<path d="M185.965 173.168L182.552 171.558L198.07 138.586L206.763 142.707L193.563 170.656C192.146 173.747 189.055 174.649 185.965 173.168Z" fill="white"/>
</mask>
<g mask="url(#mask1_25_1426)">
<path d="M205.604 138.586H205.991V174.649H205.604V138.586Z" fill="#FFBE55"/>
</g>
<mask id="mask2_25_1426" style="mask-type:luminance" maskUnits="userSpaceOnUse" x="182" y="138" width="25" height="36">
<path d="M185.965 173.168L182.552 171.558L198.07 138.586L206.763 142.707L193.563 170.656C192.146 173.747 189.055 174.649 185.965 173.168Z" fill="white"/>
</mask>
<g mask="url(#mask2_25_1426)">
<path d="M205.282 138.586H205.668V174.649H205.282V138.586ZM204.896 138.586H205.282V174.649H204.896V138.586Z" fill="#FFBE55"/>
</g>
<mask id="mask3_25_1426" style="mask-type:luminance" maskUnits="userSpaceOnUse" x="182" y="138" width="25" height="36">
<path d="M185.965 173.168L182.552 171.558L198.07 138.586L206.763 142.707L193.563 170.656C192.146 173.747 189.055 174.649 185.965 173.168Z" fill="white"/>
</mask>
<g mask="url(#mask3_25_1426)">
<path d="M204.509 138.586H204.895V174.649H204.509V138.586ZM204.123 138.586H204.509V174.649H204.123V138.586ZM203.736 138.586H204.123V174.649H203.736V138.586Z" fill="#FFBE55"/>
</g>
<mask id="mask4_25_1426" style="mask-type:luminance" maskUnits="userSpaceOnUse" x="182" y="138" width="25" height="36">
<path d="M185.965 173.168L182.552 171.558L198.07 138.586L206.763 142.707L193.563 170.656C192.146 173.747 189.055 174.649 185.965 173.168Z" fill="white"/>
</mask>
<g mask="url(#mask4_25_1426)">
<path d="M203.415 138.586H203.801V174.649H203.415V138.586Z" fill="#FFBE55"/>
</g>
<mask id="mask5_25_1426" style="mask-type:luminance" maskUnits="userSpaceOnUse" x="182" y="138" width="25" height="36">
<path d="M185.965 173.168L182.552 171.558L198.07 138.586L206.763 142.707L193.563 170.656C192.146 173.747 189.055 174.649 185.965 173.168Z" fill="white"/>
</mask>
<g mask="url(#mask5_25_1426)">
<path d="M203.028 138.586H203.414V174.649H203.028V138.586ZM202.642 138.586H203.028V174.649H202.642V138.586Z" fill="#FFBE55"/>
</g>
<mask id="mask6_25_1426" style="mask-type:luminance" maskUnits="userSpaceOnUse" x="182" y="138" width="25" height="36">
<path d="M185.965 173.168L182.552 171.558L198.07 138.586L206.763 142.707L193.563 170.656C192.146 173.747 189.055 174.649 185.965 173.168Z" fill="white"/>
</mask>
<g mask="url(#mask6_25_1426)">
<path d="M202.256 138.586H202.642V174.649H202.256V138.586Z" fill="#FFBE55"/>
</g>
<mask id="mask7_25_1426" style="mask-type:luminance" maskUnits="userSpaceOnUse" x="182" y="138" width="25" height="36">
<path d="M185.965 173.168L182.552 171.558L198.07 138.586L206.763 142.707L193.563 170.656C192.146 173.747 189.055 174.649 185.965 173.168Z" fill="white"/>
</mask>
<g mask="url(#mask7_25_1426)">
<path d="M201.934 138.586H202.32V174.649H201.934V138.586ZM201.547 138.586H201.934V174.649H201.547V138.586ZM201.161 138.586H201.547V174.649H201.161V138.586Z" fill="#FFBE55"/>
</g>
<mask id="mask8_25_1426" style="mask-type:luminance" maskUnits="userSpaceOnUse" x="182" y="138" width="25" height="36">
<path d="M185.965 173.168L182.552 171.558L198.07 138.586L206.763 142.707L193.563 170.656C192.146 173.747 189.055 174.649 185.965 173.168Z" fill="white"/>
</mask>
<g mask="url(#mask8_25_1426)">
<path d="M200.775 138.586H201.161V174.649H200.775V138.586ZM200.389 138.586H200.775V174.649H200.389V138.586Z" fill="#FFBE55"/>
</g>
<mask id="mask9_25_1426" style="mask-type:luminance" maskUnits="userSpaceOnUse" x="182" y="138" width="25" height="36">
<path d="M185.965 173.168L182.552 171.558L198.07 138.586L206.763 142.707L193.563 170.656C192.146 173.747 189.055 174.649 185.965 173.168Z" fill="white"/>
</mask>
<g mask="url(#mask9_25_1426)">
<path d="M200.066 138.586H200.453V174.649H200.066V138.586Z" fill="#FFBE55"/>
</g>
<mask id="mask10_25_1426" style="mask-type:luminance" maskUnits="userSpaceOnUse" x="182" y="138" width="25" height="36">
<path d="M185.965 173.168L182.552 171.558L198.07 138.586L206.763 142.707L193.563 170.656C192.146 173.747 189.055 174.649 185.965 173.168Z" fill="white"/>
</mask>
<g mask="url(#mask10_25_1426)">
<path d="M199.68 138.586H200.066V174.649H199.68V138.586ZM199.294 138.586H199.68V174.649H199.294V138.586ZM198.907 138.586H199.294V174.649H198.907V138.586Z" fill="#FFBE55"/>
</g>
<mask id="mask11_25_1426" style="mask-type:luminance" maskUnits="userSpaceOnUse" x="182" y="138" width="25" height="36">
<path d="M185.965 173.168L182.552 171.558L198.07 138.586L206.763 142.707L193.563 170.656C192.146 173.747 189.055 174.649 185.965 173.168Z" fill="white"/>
</mask>
<g mask="url(#mask11_25_1426)">
<path d="M198.585 138.586H198.971V174.649H198.585V138.586Z" fill="#FFBE55"/>
</g>
<mask id="mask12_25_1426" style="mask-type:luminance" maskUnits="userSpaceOnUse" x="182" y="138" width="25" height="36">
<path d="M185.965 173.168L182.552 171.558L198.07 138.586L206.763 142.707L193.563 170.656C192.146 173.747 189.055 174.649 185.965 173.168Z" fill="white"/>
</mask>
<g mask="url(#mask12_25_1426)">
<path d="M198.199 138.586H198.585V174.649H198.199V138.586ZM197.812 138.586H198.199V174.649H197.812V138.586Z" fill="#FFBE55"/>
</g>
<mask id="mask13_25_1426" style="mask-type:luminance" maskUnits="userSpaceOnUse" x="182" y="138" width="25" height="36">
<path d="M185.965 173.168L182.552 171.558L198.07 138.586L206.763 142.707L193.563 170.656C192.146 173.747 189.055 174.649 185.965 173.168Z" fill="white"/>
</mask>
<g mask="url(#mask13_25_1426)">
<path d="M197.426 138.586H197.813V174.649H197.426V138.586ZM197.04 138.586H197.426V174.649H197.04V138.586Z" fill="#FFBE55"/>
</g>
<mask id="mask14_25_1426" style="mask-type:luminance" maskUnits="userSpaceOnUse" x="182" y="138" width="25" height="36">
<path d="M185.965 173.168L182.552 171.558L198.07 138.586L206.763 142.707L193.563 170.656C192.146 173.747 189.055 174.649 185.965 173.168Z" fill="white"/>
</mask>
<g mask="url(#mask14_25_1426)">
<path d="M196.718 138.586H197.105V174.649H196.718V138.586ZM196.332 138.586H196.718V174.649H196.332V138.586Z" fill="#FFBE55"/>
</g>
<mask id="mask15_25_1426" style="mask-type:luminance" maskUnits="userSpaceOnUse" x="182" y="138" width="25" height="36">
<path d="M185.965 173.168L182.552 171.558L198.07 138.586L206.763 142.707L193.563 170.656C192.146 173.747 189.055 174.649 185.965 173.168Z" fill="white"/>
</mask>
<g mask="url(#mask15_25_1426)">
<path d="M195.945 138.586H196.331V174.649H195.945V138.586ZM195.559 138.586H195.945V174.649H195.559V138.586Z" fill="#FFBE55"/>
</g>
<mask id="mask16_25_1426" style="mask-type:luminance" maskUnits="userSpaceOnUse" x="182" y="138" width="25" height="36">
<path d="M185.965 173.168L182.552 171.558L198.07 138.586L206.763 142.707L193.563 170.656C192.146 173.747 189.055 174.649 185.965 173.168Z" fill="white"/>
</mask>
<g mask="url(#mask16_25_1426)">
<path d="M195.173 138.586H195.559V174.649H195.173V138.586Z" fill="#FFBE55"/>
</g>
<mask id="mask17_25_1426" style="mask-type:luminance" maskUnits="userSpaceOnUse" x="182" y="138" width="25" height="36">
<path d="M185.965 173.168L182.552 171.558L198.07 138.586L206.763 142.707L193.563 170.656C192.146 173.747 189.055 174.649 185.965 173.168Z" fill="white"/>
</mask>
<g mask="url(#mask17_25_1426)">
<path d="M194.851 138.586H195.237V174.649H194.851V138.586ZM194.464 138.586H194.851V174.649H194.464V138.586ZM194.078 138.586H194.464V174.649H194.078V138.586Z" fill="#FFBE55"/>
</g>
<mask id="mask18_25_1426" style="mask-type:luminance" maskUnits="userSpaceOnUse" x="182" y="138" width="25" height="36">
<path d="M185.965 173.168L182.552 171.558L198.07 138.586L206.763 142.707L193.563 170.656C192.146 173.747 189.055 174.649 185.965 173.168Z" fill="white"/>
</mask>
<g mask="url(#mask18_25_1426)">
<path d="M193.692 138.586H194.078V174.649H193.692V138.586ZM193.306 138.586H193.692V174.649H193.306V138.586Z" fill="#FFBE55"/>
</g>
<mask id="mask19_25_1426" style="mask-type:luminance" maskUnits="userSpaceOnUse" x="182" y="138" width="25" height="36">
<path d="M185.965 173.168L182.552 171.558L198.07 138.586L206.763 142.707L193.563 170.656C192.146 173.747 189.055 174.649 185.965 173.168Z" fill="white"/>
</mask>
<g mask="url(#mask19_25_1426)">
<path d="M192.983 138.586H193.37V174.649H192.983V138.586Z" fill="#FFBE55"/>
</g>
<mask id="mask20_25_1426" style="mask-type:luminance" maskUnits="userSpaceOnUse" x="182" y="138" width="25" height="36">
<path d="M185.965 173.168L182.552 171.558L198.07 138.586L206.763 142.707L193.563 170.656C192.146 173.747 189.055 174.649 185.965 173.168Z" fill="white"/>
</mask>
<g mask="url(#mask20_25_1426)">
<path d="M192.597 138.586H192.983V174.649H192.597V138.586ZM192.211 138.586H192.597V174.649H192.211V138.586ZM191.824 138.586H192.211V174.649H191.824V138.586Z" fill="#FFBE55"/>
</g>
<mask id="mask21_25_1426" style="mask-type:luminance" maskUnits="userSpaceOnUse" x="182" y="138" width="25" height="36">
<path d="M185.965 173.168L182.552 171.558L198.07 138.586L206.763 142.707L193.563 170.656C192.146 173.747 189.055 174.649 185.965 173.168Z" fill="white"/>
</mask>
<g mask="url(#mask21_25_1426)">
<path d="M191.438 138.586H191.824V174.649H191.438V138.586Z" fill="#FFBE55"/>
</g>
<mask id="mask22_25_1426" style="mask-type:luminance" maskUnits="userSpaceOnUse" x="182" y="138" width="25" height="36">
<path d="M185.965 173.168L182.552 171.558L198.07 138.586L206.763 142.707L193.563 170.656C192.146 173.747 189.055 174.649 185.965 173.168Z" fill="white"/>
</mask>
<g mask="url(#mask22_25_1426)">
<path d="M191.116 138.586H191.502V174.649H191.116V138.586ZM190.729 138.586H191.116V174.649H190.729V138.586Z" fill="#FFBE55"/>
</g>
<mask id="mask23_25_1426" style="mask-type:luminance" maskUnits="userSpaceOnUse" x="182" y="138" width="25" height="36">
<path d="M185.965 173.168L182.552 171.558L198.07 138.586L206.763 142.707L193.563 170.656C192.146 173.747 189.055 174.649 185.965 173.168Z" fill="white"/>
</mask>
<g mask="url(#mask23_25_1426)">
<path d="M190.343 138.586H190.73V174.649H190.343V138.586ZM189.957 138.586H190.343V174.649H189.957V138.586Z" fill="#FFBE55"/>
</g>
<mask id="mask24_25_1426" style="mask-type:luminance" maskUnits="userSpaceOnUse" x="182" y="138" width="25" height="36">
<path d="M185.965 173.168L182.552 171.558L198.07 138.586L206.763 142.707L193.563 170.656C192.146 173.747 189.055 174.649 185.965 173.168Z" fill="white"/>
</mask>
<g mask="url(#mask24_25_1426)">
<path d="M189.634 138.586H190.021V174.649H189.634V138.586ZM189.248 138.586H189.634V174.649H189.248V138.586Z" fill="#FFBE55"/>
</g>
<mask id="mask25_25_1426" style="mask-type:luminance" maskUnits="userSpaceOnUse" x="182" y="138" width="25" height="36">
<path d="M185.965 173.168L182.552 171.558L198.07 138.586L206.763 142.707L193.563 170.656C192.146 173.747 189.055 174.649 185.965 173.168Z" fill="white"/>
</mask>
<g mask="url(#mask25_25_1426)">
<path d="M188.862 138.586H189.248V174.649H188.862V138.586ZM188.476 138.586H188.862V174.649H188.476V138.586Z" fill="#FFBE55"/>
</g>
<mask id="mask26_25_1426" style="mask-type:luminance" maskUnits="userSpaceOnUse" x="182" y="138" width="25" height="36">
<path d="M185.965 173.168L182.552 171.558L198.07 138.586L206.763 142.707L193.563 170.656C192.146 173.747 189.055 174.649 185.965 173.168Z" fill="white"/>
</mask>
<g mask="url(#mask26_25_1426)">
<path d="M188.09 138.586H188.476V174.649H188.09V138.586Z" fill="#FFBE55"/>
</g>
<mask id="mask27_25_1426" style="mask-type:luminance" maskUnits="userSpaceOnUse" x="182" y="138" width="25" height="36">
<path d="M185.965 173.168L182.552 171.558L198.07 138.586L206.763 142.707L193.563 170.656C192.146 173.747 189.055 174.649 185.965 173.168Z" fill="white"/>
</mask>
<g mask="url(#mask27_25_1426)">
<path d="M187.768 138.586H188.154V174.649H187.768V138.586ZM187.381 138.586H187.768V174.649H187.381V138.586ZM186.995 138.586H187.381V174.649H186.995V138.586Z" fill="#FFBE55"/>
</g>
<mask id="mask28_25_1426" style="mask-type:luminance" maskUnits="userSpaceOnUse" x="182" y="138" width="25" height="36">
<path d="M185.965 173.168L182.552 171.558L198.07 138.586L206.763 142.707L193.563 170.656C192.146 173.747 189.055 174.649 185.965 173.168Z" fill="white"/>
</mask>
<g mask="url(#mask28_25_1426)">
<path d="M186.608 138.586H186.994V174.649H186.608V138.586ZM186.222 138.586H186.608V174.649H186.222V138.586Z" fill="#FFBE55"/>
</g>
<mask id="mask29_25_1426" style="mask-type:luminance" maskUnits="userSpaceOnUse" x="182" y="138" width="25" height="36">
<path d="M185.965 173.168L182.552 171.558L198.07 138.586L206.763 142.707L193.563 170.656C192.146 173.747 189.055 174.649 185.965 173.168Z" fill="white"/>
</mask>
<g mask="url(#mask29_25_1426)">
<path d="M185.9 138.586H186.287V174.649H185.9V138.586Z" fill="#FFBE55"/>
</g>
<mask id="mask30_25_1426" style="mask-type:luminance" maskUnits="userSpaceOnUse" x="182" y="138" width="25" height="36">
<path d="M185.965 173.168L182.552 171.558L198.07 138.586L206.763 142.707L193.563 170.656C192.146 173.747 189.055 174.649 185.965 173.168Z" fill="white"/>
</mask>
<g mask="url(#mask30_25_1426)">
<path d="M185.514 138.586H185.9V174.649H185.514V138.586ZM185.128 138.586H185.514V174.649H185.128V138.586ZM184.741 138.586H185.128V174.649H184.741V138.586Z" fill="#FFBE55"/>
</g>
<mask id="mask31_25_1426" style="mask-type:luminance" maskUnits="userSpaceOnUse" x="182" y="138" width="25" height="36">
<path d="M185.965 173.168L182.552 171.558L198.07 138.586L206.763 142.707L193.563 170.656C192.146 173.747 189.055 174.649 185.965 173.168Z" fill="white"/>
</mask>
<g mask="url(#mask31_25_1426)">
<path d="M184.354 138.586H184.741V174.649H184.354V138.586Z" fill="#FFBE55"/>
</g>
<mask id="mask32_25_1426" style="mask-type:luminance" maskUnits="userSpaceOnUse" x="182" y="138" width="25" height="36">
<path d="M185.965 173.168L182.552 171.558L198.07 138.586L206.763 142.707L193.563 170.656C192.146 173.747 189.055 174.649 185.965 173.168Z" fill="white"/>
</mask>
<g mask="url(#mask32_25_1426)">
<path d="M184.033 138.586H184.419V174.649H184.033V138.586ZM183.646 138.586H184.033V174.649H183.646V138.586Z" fill="#FFBE55"/>
</g>
<mask id="mask33_25_1426" style="mask-type:luminance" maskUnits="userSpaceOnUse" x="182" y="138" width="25" height="36">
<path d="M185.965 173.168L182.552 171.558L198.07 138.586L206.763 142.707L193.563 170.656C192.146 173.747 189.055 174.649 185.965 173.168Z" fill="white"/>
</mask>
<g mask="url(#mask33_25_1426)">
<path d="M183.26 138.586H183.646V174.649H183.26V138.586ZM182.874 138.586H183.26V174.649H182.874V138.586ZM182.487 138.586H182.874V174.649H182.487V138.586Z" fill="#FFBE55"/>
</g>
<path d="M218.224 145.798L183.968 139.423L189.505 111.281L223.504 119.073L218.224 145.798Z" fill="#FFBE55"/>
<mask id="mask34_25_1426" style="mask-type:luminance" maskUnits="userSpaceOnUse" x="183" y="111" width="41" height="35">
<path d="M218.224 145.798L183.968 139.423L189.505 111.281L223.504 119.073L218.224 145.798Z" fill="white"/>
</mask>
<g mask="url(#mask34_25_1426)">
<path d="M222.925 111.281H223.505V145.798H222.925V111.281ZM222.281 111.281H222.861V145.798H222.281V111.281Z" fill="#FFBE55"/>
</g>
<mask id="mask35_25_1426" style="mask-type:luminance" maskUnits="userSpaceOnUse" x="183" y="111" width="41" height="35">
<path d="M218.224 145.798L183.968 139.423L189.505 111.281L223.504 119.073L218.224 145.798Z" fill="white"/>
</mask>
<g mask="url(#mask35_25_1426)">
<path d="M221.701 111.281H222.345V145.798H221.701V111.281ZM221.057 111.281H221.637V145.798H221.057V111.281ZM220.478 111.281H221.057V145.798H220.478V111.281ZM219.898 111.281H220.478V145.798H219.898V111.281ZM219.254 111.281H219.834V145.798H219.254V111.281ZM218.675 111.281H219.254V145.798H218.675V111.281ZM218.031 111.281H218.61V145.798H218.031V111.281ZM217.451 111.281H218.031V145.798H217.451V111.281ZM216.807 111.281H217.451V145.798H216.807V111.281ZM216.228 111.281H216.807V145.798H216.228V111.281ZM215.584 111.281H216.164V145.798H215.584V111.281ZM215.005 111.281H215.584V145.798H215.005V111.281ZM214.361 111.281H214.94V145.798H214.361V111.281ZM213.781 111.281H214.361V145.798H213.781V111.281ZM213.202 111.281H213.781V145.798H213.202V111.281ZM212.558 111.281H213.137V145.798H212.558V111.281Z" fill="#FFBE55"/>
</g>
<mask id="mask36_25_1426" style="mask-type:luminance" maskUnits="userSpaceOnUse" x="183" y="111" width="41" height="35">
<path d="M218.224 145.798L183.968 139.423L189.505 111.281L223.504 119.073L218.224 145.798Z" fill="white"/>
</mask>
<g mask="url(#mask36_25_1426)">
<path d="M211.979 111.281H212.622V145.798H211.979V111.281ZM211.335 111.281H211.914V145.798H211.335V111.281ZM210.755 111.281H211.335V145.798H210.755V111.281ZM210.111 111.281H210.691V145.798H210.111V111.281ZM209.532 111.281H210.111V145.798H209.532V111.281ZM208.888 111.281H209.467V145.798H208.888V111.281ZM208.308 111.281H208.888V145.798H208.308V111.281ZM207.729 111.281H208.308V145.798H207.729V111.281ZM207.085 111.281H207.664V145.798H207.085V111.281ZM206.505 111.281H207.085V145.798H206.505V111.281ZM205.861 111.281H206.441V145.798H205.861V111.281Z" fill="#FFBE55"/>
</g>
<mask id="mask37_25_1426" style="mask-type:luminance" maskUnits="userSpaceOnUse" x="183" y="111" width="41" height="35">
<path d="M218.224 145.798L183.968 139.423L189.505 111.281L223.504 119.073L218.224 145.798Z" fill="white"/>
</mask>
<g mask="url(#mask37_25_1426)">
<path d="M205.282 111.281H205.926V145.798H205.282V111.281ZM204.638 111.281H205.217V145.798H204.638V111.281ZM204.058 111.281H204.638V145.798H204.058V111.281ZM203.414 111.281H203.994V145.798H203.414V111.281ZM202.835 111.281H203.414V145.798H202.835V111.281ZM202.191 111.281H202.77V145.798H202.191V111.281ZM201.611 111.281H202.191V145.798H201.611V111.281ZM201.032 111.281H201.611V145.798H201.032V111.281ZM200.388 111.281H201.032V145.798H200.388V111.281ZM199.808 111.281H200.388V145.798H199.808V111.281ZM199.164 111.281H199.744V145.798H199.164V111.281ZM198.585 111.281H199.164V145.798H198.585V111.281ZM197.941 111.281H198.521V145.798H197.941V111.281ZM197.362 111.281H197.941V145.798H197.362V111.281ZM196.718 111.281H197.297V145.798H196.718V111.281ZM196.138 111.281H196.718V145.798H196.138V111.281ZM195.494 111.281H196.074V145.798H195.494V111.281Z" fill="#FFBE55"/>
</g>
<mask id="mask38_25_1426" style="mask-type:luminance" maskUnits="userSpaceOnUse" x="183" y="111" width="41" height="35">
<path d="M218.224 145.798L183.968 139.423L189.505 111.281L223.504 119.073L218.224 145.798Z" fill="white"/>
</mask>
<g mask="url(#mask38_25_1426)">
<path d="M194.914 111.281H195.558V145.798H194.914V111.281ZM194.335 111.281H194.914V145.798H194.335V111.281ZM193.691 111.281H194.27V145.798H193.691V111.281ZM193.111 111.281H193.691V145.798H193.111V111.281ZM192.468 111.281H193.047V145.798H192.468V111.281ZM191.888 111.281H192.468V145.798H191.888V111.281ZM191.244 111.281H191.824V145.798H191.244V111.281ZM190.665 111.281H191.244V145.798H190.665V111.281ZM190.021 111.281H190.665V145.798H190.021V111.281ZM189.441 111.281H190.021V145.798H189.441V111.281ZM188.797 111.281H189.377V145.798H188.797V111.281ZM188.218 111.281H188.797V145.798H188.218V111.281ZM187.638 111.281H188.218V145.798H187.638V111.281ZM186.994 111.281H187.574V145.798H186.994V111.281ZM186.415 111.281H186.994V145.798H186.415V111.281ZM185.771 111.281H186.35V145.798H185.771V111.281ZM185.191 111.281H185.771V145.798H185.191V111.281ZM184.547 111.281H185.191V145.798H184.547V111.281ZM183.968 111.281H184.547V145.798H183.968V111.281Z" fill="#FFBE55"/>
</g>
<path d="M169.673 335.066C193.677 335.066 213.137 320.995 213.137 303.639C213.137 286.283 193.677 272.213 169.673 272.213C145.668 272.213 126.208 286.283 126.208 303.639C126.208 320.995 145.668 335.066 169.673 335.066Z" fill="#2A94F4"/>
<path d="M151.45 355.287C172.041 355.287 188.733 343.235 188.733 328.368C188.733 313.501 172.041 301.45 151.45 301.45C130.859 301.45 114.167 313.501 114.167 328.368C114.167 343.235 130.859 355.287 151.45 355.287Z" fill="#FFBE55"/>
<path d="M152.352 351.745H164.972V368.36L152.352 351.745Z" fill="#FFBE55"/>
<path d="M173.665 279.554H188.411V260.17L173.665 279.554Z" fill="#2A94F4"/>
<path d="M114.747 100.269C113.974 101.041 112.75 101.041 112.042 100.269L95.1713 83.3961C94.3986 82.6234 94.3986 81.3998 95.1713 80.6914C95.9441 79.9186 97.1675 79.9186 97.8758 80.6914L114.747 97.5638C115.519 98.2722 115.519 99.4958 114.747 100.269ZM106.826 127.316C106.955 128.346 106.182 129.312 105.088 129.441L81.3915 131.953C80.3612 132.081 79.3953 131.309 79.2665 130.214C79.1377 129.184 79.9104 128.218 81.0051 128.089L104.701 125.577C105.732 125.513 106.698 126.286 106.826 127.316ZM102.898 112.118C102.576 113.148 101.417 113.663 100.451 113.277L77.9143 105.42C76.884 105.098 76.3689 103.939 76.7552 102.973C77.0772 101.943 78.2362 101.428 79.2021 101.814L101.675 109.671C102.705 109.993 103.22 111.088 102.898 112.118Z" fill="#FFBE55"/>
</svg>
