<svg width="109" height="109" viewBox="0 0 109 109" fill="none" xmlns="http://www.w3.org/2000/svg">
<g id="Online learning concept">
<path id="Vector" d="M104.458 107.486H5.34881C4.6827 107.486 4.1377 106.941 4.1377 106.275V101.531C4.1377 100.865 4.6827 100.32 5.34881 100.32H104.458C105.124 100.32 105.669 100.865 105.669 101.531V106.275C105.669 106.941 105.124 107.486 104.458 107.486Z" fill="#F7F7F7"/>
<path id="Vector_2" d="M55.7112 102.036C74.3283 102.036 89.4205 86.9439 89.4205 68.3268C89.4205 49.7097 74.3283 34.6176 55.7112 34.6176C37.0941 34.6176 22.002 49.7097 22.002 68.3268C22.002 86.9439 37.0941 102.036 55.7112 102.036Z" fill="#F3FAFF"/>
<path id="Vector_3" d="M97.4946 92.1353C98.2112 90.3085 98.9378 88.2799 98.2616 86.4431C98.1001 85.999 97.8478 85.5246 97.9992 85.0705C98.2011 84.4548 99.0085 84.2429 99.2709 83.6575C99.5737 83.0116 99.0993 82.2647 99.2204 81.5683C99.3415 80.8619 100.038 80.3976 100.714 80.1453C101.39 79.893 102.127 79.7315 102.672 79.2672C103.712 78.3589 103.591 76.734 103.358 75.3614C103.126 73.9989 102.955 72.3841 103.954 71.4253C102.117 71.7785 100.24 72.1419 98.6452 73.1108C97.0505 74.0796 95.7789 75.7954 95.8697 77.6625C95.9202 78.6011 96.2835 79.6003 95.8596 80.4279C95.3953 81.3261 94.1539 81.6794 93.8411 82.6382C93.4777 83.7383 94.5576 84.7475 94.9815 85.8274C95.3852 86.8468 95.1935 87.9872 95.2843 89.0671C95.3751 90.1571 95.9403 91.3884 97.0202 91.5499L97.4946 92.1353Z" fill="#FFBE55"/>
<path id="Vector_4" opacity="0.31" d="M97.4946 92.1353C98.2112 90.3085 98.9378 88.2799 98.2616 86.4431C98.1001 85.999 97.8478 85.5246 97.9992 85.0705C98.2011 84.4548 99.0085 84.2429 99.2709 83.6575C99.5737 83.0116 99.0993 82.2647 99.2204 81.5683C99.3415 80.8619 100.038 80.3976 100.714 80.1453C101.39 79.893 102.127 79.7315 102.672 79.2672C103.712 78.3589 103.591 76.734 103.358 75.3614C103.126 73.9989 102.955 72.3841 103.954 71.4253C102.117 71.7785 100.24 72.1419 98.6452 73.1108C97.0505 74.0796 95.7789 75.7954 95.8697 77.6625C95.9202 78.6011 96.2835 79.6003 95.8596 80.4279C95.3953 81.3261 94.1539 81.6794 93.8411 82.6382C93.4777 83.7383 94.5576 84.7475 94.9815 85.8274C95.3852 86.8468 95.1935 87.9872 95.2843 89.0671C95.3751 90.1571 95.9403 91.3884 97.0202 91.5499L97.4946 92.1353Z" fill="white"/>
<path id="Vector_5" d="M96.7581 89.7434C96.7379 84.4347 97.7674 73.3227 103.894 71.4657" stroke="white" stroke-width="0.75" stroke-miterlimit="10" stroke-linecap="round"/>
<path id="Vector_6" d="M93.2251 91.6913C92.1351 89.6526 91.0048 87.3817 91.5397 85.1311C91.6709 84.5861 91.8929 84.0007 91.6608 83.486C91.3479 82.7997 90.3689 82.6483 89.9753 82.0024C89.5413 81.2959 89.9854 80.3472 89.7432 79.5499C89.501 78.7324 88.6229 78.2984 87.8054 78.0864C86.9879 77.8846 86.0998 77.8038 85.3933 77.3194C84.051 76.401 83.9702 74.4733 84.051 72.8484C84.1317 71.2235 84.1115 69.3059 82.8096 68.3269C85.0098 68.4884 87.2604 68.66 89.2587 69.5784C91.2571 70.4968 92.993 72.3337 93.1343 74.5338C93.2049 75.6339 92.9123 76.8551 93.5279 77.7736C94.194 78.7626 95.6978 79.0049 96.2024 80.0848C96.7777 81.3262 95.6574 82.6483 95.3042 83.9704C94.9812 85.2118 95.3547 86.5238 95.395 87.8056C95.4354 89.0874 94.9409 90.6114 93.6995 90.9545L93.2251 91.6913Z" fill="#FFBE55"/>
<path id="Vector_7" d="M93.7603 88.7845C93.0539 82.5574 90.3289 69.6893 82.8906 68.3672" stroke="white" stroke-width="0.75" stroke-miterlimit="10" stroke-linecap="round"/>
<path id="Vector_8" d="M100.118 103.651H90.5302C89.8641 103.651 89.3191 103.106 89.3191 102.44L88.5117 88.613C88.5117 87.9469 89.0567 87.4019 89.7228 87.4019H100.926C101.592 87.4019 102.137 87.9469 102.137 88.613L101.329 102.44C101.329 103.106 100.784 103.651 100.118 103.651Z" fill="#CCE9FF"/>
<path id="Vector_9" d="M13.1758 59.7384L19.3625 58.8003L23.5687 86.5407L17.382 87.4787L13.1758 59.7384Z" fill="#FFBE55"/>
<path id="Vector_10" d="M16.2666 59.2721L19.3599 58.8031L23.5662 86.5434L20.4728 87.0124L16.2666 59.2721Z" fill="#FFBE55"/>
<path id="Vector_11" d="M19.3674 58.8298L13.1807 59.7684L14.634 56.0442L15.4616 53.9449L16.8746 55.7112L19.3674 58.8298Z" fill="#FFEBC2"/>
<path id="Vector_12" d="M16.8743 55.7111L14.6338 56.0442L15.4614 53.9449L16.8743 55.7111Z" fill="#0E538C"/>
<path id="Vector_13" d="M24.335 52.4493L30.5673 53.0074L28.0649 80.9526L21.8325 80.3945L24.335 52.4493Z" fill="#FFBE55"/>
<path id="Vector_14" d="M27.457 52.7306L30.5732 53.0096L28.0708 80.9548L24.9546 80.6758L27.457 52.7306Z" fill="#FFBE55"/>
<path id="Vector_15" d="M30.5702 53.0365L24.333 52.4814L26.6341 49.2114L27.9361 47.3645L28.8848 49.4133L30.5702 53.0365Z" fill="#FFEBC2"/>
<path id="Vector_16" d="M28.8854 49.4133L26.6348 49.2114L27.9367 47.3645L28.8854 49.4133Z" fill="#0E538C"/>
<path id="Vector_17" d="M34.6684 103.752H10.0828L6.86328 65.7028H36.6364L34.6684 103.752Z" fill="#CCE9FF"/>
<path id="Vector_18" opacity="0.5" d="M21.75 103.752H34.6685L36.6366 65.7028H21.75V103.752Z" fill="#CCE9FF"/>
<path id="Vector_19" d="M27.1494 93.0133H89.6226V101.602H27.1494V93.0133Z" fill="#FFEBC2"/>
<path id="Vector_20" d="M27.4116 93.0133V101.602H92.9529V102.248C92.9529 103.045 92.2565 103.691 91.3987 103.691H27.6942C25.6656 103.691 24.0205 102.177 24.0205 100.3V94.5575C24.0205 92.6803 25.6656 91.1664 27.6942 91.1664H91.3987C92.2565 91.1664 92.9529 91.8123 92.9529 92.6096V93.0234H27.4116V93.0133Z" fill="#FFBE55"/>
<path id="Vector_21" d="M27.1494 96.8384H89.6226V101.592H27.1494V96.8384Z" fill="#FFEBC2"/>
<path id="Vector_22" d="M35.2236 82.5574H85.9894V90.0259H35.2236V82.5574Z" fill="#CCE9FF"/>
<path id="Vector_23" d="M35.223 82.5574V90.0259H87.9064V90.5911C87.9064 91.2875 87.3412 91.8425 86.6549 91.8425H35.4451C33.8202 91.8425 32.498 90.5204 32.498 88.8955V83.8997C32.498 82.2748 33.8202 80.9526 35.4451 80.9526H86.6549C87.3412 80.9526 87.9064 81.5178 87.9064 82.2041V82.5675H35.223V82.5574Z" fill="#2A94F4"/>
<path id="Vector_24" d="M57.1647 57.1342C56.4683 56.2157 56.4077 54.9542 57.0638 53.9954C57.5886 53.2283 57.9418 52.2796 57.9014 51.5832C57.8207 50.3318 57.0436 49.1812 55.9838 48.4949C54.5911 47.5866 52.734 47.4554 51.2302 48.1618C49.7264 48.8683 48.6364 50.3822 48.4447 52.0273C48.3034 53.2081 48.5759 54.5 47.9703 55.5294C47.5262 56.2662 46.7087 56.7002 45.9013 56.9929C45.0838 57.2755 44.226 57.4672 43.4791 57.9012C42.7323 58.3352 42.0964 59.082 42.1065 59.95C42.1166 60.606 42.49 61.2116 42.5304 61.8575C42.591 62.8062 41.9249 63.6439 41.2184 64.2696C40.5018 64.8954 39.6843 65.4404 39.1999 66.2579C38.4025 67.6103 38.776 69.437 39.7852 70.6481C40.7945 71.8593 42.3084 72.5355 43.8223 72.9291C47.9602 74.0191 52.3202 73.3126 56.5894 73.2419C57.9115 73.2218 59.2639 73.2621 60.5457 72.9291C61.8275 72.596 63.0789 71.829 63.6138 70.6179C64.1588 69.4068 63.8863 67.9332 63.1597 66.8331C62.433 65.733 61.2925 64.9357 60.0915 64.3705C59.2236 63.9568 58.295 63.6338 57.5886 62.9879C56.8821 62.3419 56.4683 61.2418 56.9426 60.4042C57.1243 60.0812 57.4271 59.8289 57.5987 59.5059C57.9418 58.8802 57.8005 58.0829 57.417 57.4773C57.3463 57.3764 57.2656 57.2654 57.1647 57.1342Z" fill="#0E538C"/>
<path id="Vector_25" d="M35.2236 85.8879H85.9894V90.0259H35.2236V85.8879Z" fill="#CCE9FF"/>
<path id="Vector_26" d="M58.1338 75.2908L64.3912 79.7315L72.0616 95.5769H70.6486L62.0699 81.5482C62.0699 81.5482 59.143 81.6491 58.1338 80.7408C57.1245 79.8324 51.3213 75.8963 51.3213 75.8963L58.1338 75.2908Z" fill="#0B4870"/>
<path id="Vector_27" d="M47.0615 74.019C45.9211 77.1074 46.7285 81.4472 50.5636 81.649C54.3988 81.8509 55.6099 81.649 55.6099 81.649L63.0785 96.7879H64.7942L58.9405 79.8324L51.8252 75.8963L47.0615 74.019Z" fill="#0E538C"/>
<path id="Vector_28" d="M52.8849 56.4176C53.8941 57.7296 56.3163 61.363 57.2247 65.4C58.133 69.437 60.6561 75.2908 60.6561 75.2908H57.7293L54.9034 65.7028L52.2793 56.7204L52.8849 56.4176Z" fill="#4EA3FB"/>
<path id="Vector_29" d="M55.9939 51.0585C56.1453 53.5312 55.0654 55.2267 53.5212 55.3075C51.977 55.3882 50.9678 53.1476 51.432 51.0585C52.5119 49.2014 53.9855 49.05 53.9855 49.05H54.914L55.9939 51.0585Z" fill="#FFE3CA"/>
<path id="Vector_30" d="M54.9638 49.5849C54.6812 50.4528 54.0555 51.1997 53.2481 51.6236C52.4407 52.0475 51.4718 52.1484 50.5938 51.886L52.7939 48.7472H54.6813L56.4878 50.1803L56.2153 51.8254C55.5088 51.2905 54.9638 49.5849 54.9638 49.5849Z" fill="#0E538C"/>
<path id="Vector_31" d="M53.0566 55.0147C52.7337 56.2662 52.8346 57.5782 52.8346 57.7801C52.5318 58.1838 51.1188 58.0829 50.917 56.6699C51.2198 54.8532 51.8253 52.8347 51.8253 52.8347L52.33 53.9449L53.0566 55.0147Z" fill="#FFE3CA"/>
<path id="Vector_32" d="M51.1193 55.6001C49.8577 56.0139 45.6188 57.9315 45.417 58.3352C45.7198 59.4454 47.2337 75.8963 47.2337 75.8963H54.0966C54.0966 75.8963 53.1883 66.813 53.6929 66.2074C54.1975 65.6019 55.8124 63.4824 55.6105 63.1796C55.4087 62.8769 52.8451 56.3671 52.8451 56.3671L51.1193 55.6001Z" fill="#2A94F4"/>
<path id="Vector_33" d="M45.4169 58.3352C44.4278 59.0921 40.2696 65.9046 41.5817 69.538C42.8937 73.1713 47.1831 75.3109 47.1831 75.3109V73.3126C47.1831 73.3126 43.7011 70.5472 43.903 68.5287C44.1048 66.5102 46.5271 62.3722 46.5271 62.3722L45.4169 58.3352Z" fill="#4EA3FB"/>
<path id="Vector_34" d="M61.6761 77.0569H46.8198C46.3556 77.0569 45.9721 76.6734 45.9721 76.2091L45.5684 66.7019C45.5684 66.2376 45.9519 65.8541 46.4161 65.8541H61.878C62.3422 65.8541 62.7258 66.2376 62.7258 66.7019L62.5239 76.2091C62.5239 76.6734 62.1404 77.0569 61.6761 77.0569Z" fill="#FFBE55"/>
<path id="Vector_35" d="M64.5523 96.7879C65.5515 97.01 66.9039 98.1101 67.5498 98.6753C67.681 98.7863 67.6003 99.0083 67.4186 99.0083C66.3791 98.9881 64.0275 98.8771 63.4825 98.4129C62.776 97.8073 62.9779 96.798 62.9779 96.798H64.5523V96.7879ZM72.041 95.5365C72.9292 95.7787 74.0999 96.8081 74.6853 97.3632C74.8165 97.4843 74.7155 97.6963 74.544 97.6862C73.565 97.6155 71.4657 97.4238 70.9914 96.9696C70.3656 96.3842 70.5978 95.4658 70.5978 95.4658L72.041 95.5365Z" fill="#1A87D8"/>
<path id="Vector_36" d="M54.1975 72.9694C55.0336 72.9694 55.7114 72.2916 55.7114 71.4555C55.7114 70.6194 55.0336 69.9417 54.1975 69.9417C53.3614 69.9417 52.6836 70.6194 52.6836 71.4555C52.6836 72.2916 53.3614 72.9694 54.1975 72.9694Z" fill="white"/>
<path id="Vector_37" d="M40.8752 92.9528L38.9576 91.8426L37.04 92.9528V85.888H40.8752V92.9528ZM70.608 51.119C70.608 51.3107 70.5374 51.4823 70.4162 51.6236C70.5374 51.7548 70.608 51.9365 70.608 52.1283V52.754C70.608 52.8852 70.5676 53.0164 70.5071 53.1274C70.5676 53.2384 70.608 53.3696 70.608 53.5008V54.1266C70.608 54.5404 70.2749 54.8734 69.8612 54.8734H63.3615C62.9477 54.8734 62.6147 54.5404 62.6147 54.1266V53.4907C62.6147 53.3595 62.655 53.2283 62.7156 53.1173C62.655 53.0063 62.6147 52.8751 62.6147 52.7439V52.1182C62.6147 51.9264 62.6853 51.7548 62.8064 51.6135C62.6853 51.4823 62.6147 51.3007 62.6147 51.1089V50.4832C62.6147 50.0694 62.9477 49.7363 63.3615 49.7363H69.8612C70.2749 49.7363 70.608 50.0694 70.608 50.4832V51.119ZM75.7956 36.9692C75.7956 40.6126 73.6761 43.7514 70.608 45.2451V48.6362C70.608 48.8885 70.3961 49.1005 70.1437 49.1005H63.0789C62.8266 49.1005 62.6147 48.8885 62.6147 48.6362V45.2451C59.5465 43.7615 57.4271 40.6126 57.4271 36.9692C57.4271 31.8926 61.5348 27.7849 66.6113 27.7849C71.6879 27.7849 75.7956 31.9027 75.7956 36.9692Z" fill="#FFBE55"/>
<path id="Vector_38" opacity="0.23" d="M69.7395 51.6741H63.583M69.7395 53.087H63.583" stroke="#7F7F7F" stroke-width="2" stroke-miterlimit="10" stroke-linecap="round"/>
<path id="Vector_39" d="M68.1851 38.0996C68.0741 37.9987 67.9126 37.9482 67.741 37.9684C67.5291 37.9886 67.3272 38.1097 67.196 38.2812C67.085 38.4326 67.0244 38.6143 66.9942 38.7859C66.9033 38.7354 66.8024 38.6849 66.7116 38.6244L66.6813 38.6042H66.5501L66.5198 38.6244C66.4189 38.6849 66.328 38.7354 66.2372 38.7859C66.2069 38.6143 66.1464 38.4326 66.0354 38.2812C65.9143 38.1097 65.7023 37.9886 65.4904 37.9684C65.3188 37.9482 65.1674 37.9987 65.0463 38.0996C64.8949 38.2409 64.8444 38.4427 64.8949 38.6547C64.9756 38.9373 65.2078 39.1694 65.4803 39.2199C65.6518 39.2501 65.8133 39.24 65.9849 39.1997C66.2372 42.4798 66.3381 45.8002 66.2675 49.0803H66.5703C66.6409 45.7901 66.54 42.4596 66.2877 39.1795C66.2877 39.1492 66.2877 39.1189 66.2776 39.0887C66.3987 39.0382 66.5097 38.9776 66.6207 38.907C66.7317 38.9675 66.8428 39.0382 66.9639 39.0887C66.9639 39.1189 66.9639 39.1492 66.9538 39.1795C66.7015 42.4596 66.6005 45.7901 66.6712 49.0803H66.974C66.9033 45.8002 67.0043 42.4697 67.2566 39.1997C67.4181 39.24 67.5896 39.2602 67.7612 39.2199C68.0236 39.1694 68.2658 38.9373 68.3466 38.6547C68.3869 38.4427 68.3365 38.2409 68.1851 38.0996ZM65.5307 38.9373C65.3793 38.907 65.228 38.7556 65.1775 38.584C65.1573 38.5134 65.1472 38.4024 65.2381 38.3317C65.2885 38.2812 65.3592 38.2712 65.4096 38.2712H65.45C65.5711 38.2812 65.7023 38.3519 65.783 38.4629C65.8739 38.584 65.9243 38.7354 65.9445 38.907C65.8032 38.9474 65.672 38.9574 65.5307 38.9373ZM68.0438 38.584C67.9933 38.7556 67.852 38.907 67.6905 38.9373C67.5593 38.9675 67.418 38.9474 67.2868 38.907C67.3171 38.7354 67.3575 38.584 67.4483 38.4629C67.519 38.362 67.6502 38.2913 67.7814 38.2712C67.8419 38.2611 67.9227 38.2712 67.9933 38.3317C68.064 38.4024 68.0539 38.5134 68.0438 38.584Z" fill="white"/>
<path id="Vector_40" d="M64.1888 29.4703C61.9685 30.2777 58.3351 33.2046 58.6379 37.9481" stroke="white" stroke-width="4" stroke-miterlimit="10" stroke-linecap="round"/>
<path id="Vector_41" d="M52.0277 45.9213C53.4491 45.9213 54.6013 44.769 54.6013 43.3477C54.6013 41.9263 53.4491 40.774 52.0277 40.774C50.6063 40.774 49.4541 41.9263 49.4541 43.3477C49.4541 44.769 50.6063 45.9213 52.0277 45.9213Z" fill="#FFBE55"/>
<path id="Vector_42" d="M79.5806 36.0305C80.2216 36.0305 80.7412 35.5109 80.7412 34.8699C80.7412 34.2289 80.2216 33.7092 79.5806 33.7092C78.9396 33.7092 78.4199 34.2289 78.4199 34.8699C78.4199 35.5109 78.9396 36.0305 79.5806 36.0305Z" fill="#FFBE55"/>
<path id="Vector_43" d="M75.7955 55.0046C76.8546 55.0046 77.7131 54.1461 77.7131 53.087C77.7131 52.028 76.8546 51.1694 75.7955 51.1694C74.7365 51.1694 73.8779 52.028 73.8779 53.087C73.8779 54.1461 74.7365 55.0046 75.7955 55.0046Z" fill="#FFBE55"/>
<path id="Vector_44" d="M57.4264 28.2593C58.4854 28.2593 59.344 27.4007 59.344 26.3417C59.344 25.2826 58.4854 24.4241 57.4264 24.4241C56.3673 24.4241 55.5088 25.2826 55.5088 26.3417C55.5088 27.4007 56.3673 28.2593 57.4264 28.2593Z" fill="#FFBE55"/>
<path id="Vector_45" opacity="0.14" d="M40.8752 92.9528L38.9576 91.8426L37.04 92.9528V85.8879H40.8752V92.9528Z" fill="#0C0C0C"/>
</g>
</svg>
